<?xml version="1.0" encoding="UTF-8" standalone="no"?>
<!-- Created with Inkscape (http://www.inkscape.org/) -->

<svg
   xmlns:dc="http://purl.org/dc/elements/1.1/"
   xmlns:cc="http://creativecommons.org/ns#"
   xmlns:rdf="http://www.w3.org/1999/02/22-rdf-syntax-ns#"
   xmlns:svg="http://www.w3.org/2000/svg"
   xmlns="http://www.w3.org/2000/svg"
   xmlns:sodipodi="http://sodipodi.sourceforge.net/DTD/sodipodi-0.dtd"
   xmlns:inkscape="http://www.inkscape.org/namespaces/inkscape"
   width="72.367035mm"
   height="25.51379mm"
   viewBox="0 0 256.41863 90.403193"
   id="svg2"
   version="1.1"
   inkscape:version="0.91 r13725"
   sodipodi:docname="smiley.svg">
  <defs
     id="defs4" />
  <sodipodi:namedview
     id="base"
     pagecolor="#ffffff"
     bordercolor="#666666"
     borderopacity="1.0"
     inkscape:pageopacity="0.0"
     inkscape:pageshadow="2"
     inkscape:zoom="1.979899"
     inkscape:cx="-4.069897"
     inkscape:cy="157.52994"
     inkscape:document-units="px"
     inkscape:current-layer="layer1"
     showgrid="false"
     inkscape:window-width="1920"
     inkscape:window-height="1016"
     inkscape:window-x="0"
     inkscape:window-y="27"
     inkscape:window-maximized="1"
     fit-margin-top="0"
     fit-margin-left="0"
     fit-margin-right="0"
     fit-margin-bottom="0" />
  <metadata
     id="metadata7">
    <rdf:RDF>
      <cc:Work
         rdf:about="">
        <dc:format>image/svg+xml</dc:format>
        <dc:type
           rdf:resource="http://purl.org/dc/dcmitype/StillImage" />
        <dc:title></dc:title>
      </cc:Work>
    </rdf:RDF>
  </metadata>
  <g
     inkscape:label="Ebene 1"
     inkscape:groupmode="layer"
     id="layer1"
     transform="translate(-35.64478,-609.55815)">
    <path
       style="color:#000000;font-style:normal;font-variant:normal;font-weight:normal;font-stretch:normal;font-size:medium;line-height:normal;font-family:sans-serif;text-indent:0;text-align:start;text-decoration:none;text-decoration-line:none;text-decoration-style:solid;text-decoration-color:#000000;letter-spacing:normal;word-spacing:normal;text-transform:none;direction:ltr;writing-mode:lr-tb;baseline-shift:baseline;text-anchor:start;white-space:normal;clip-rule:nonzero;display:inline;overflow:visible;visibility:visible;opacity:1;isolation:auto;mix-blend-mode:normal;color-interpolation:sRGB;color-interpolation-filters:linearRGB;solid-color:#000000;solid-opacity:1;fill:#000000;fill-opacity:1;fill-rule:nonzero;stroke:none;stroke-width:20.50547409;stroke-linecap:round;stroke-linejoin:miter;stroke-miterlimit:4;stroke-dasharray:none;stroke-dashoffset:0;stroke-opacity:1;color-rendering:auto;image-rendering:auto;shape-rendering:auto;text-rendering:auto;enable-background:accumulate"
       d="m 178.66522,609.56663 a 10.253762,10.253762 0 0 0 -7.82422,3.66797 c -12.85452,14.90484 -34.83853,24.46485 -58.53906,24.46485 -23.700534,0 -45.682584,-9.56001 -58.537104,-24.46485 a 10.253762,10.253762 0 1 0 -15.52735,13.39258 c 17.43919,20.22075 44.94953,31.57813 74.064454,31.57813 29.11492,0 56.62722,-11.35738 74.0664,-31.57813 a 10.253762,10.253762 0 0 0 -7.70312,-17.06055 z"
       id="path4142-6-7"
       inkscape:connector-curvature="0" />
    <path
       style="fill:#000000;fill-opacity:1;stroke:none;stroke-width:1.54248452;stroke-miterlimit:4;stroke-dasharray:none;stroke-opacity:1"
       d="m 239.95953,630.81799 a 21.259842,21.25984 0 0 1 -21.25984,21.25984 21.259842,21.25984 0 0 1 -21.25984,-21.25984 21.259842,21.25984 0 0 1 21.25984,-21.25984 21.259842,21.25984 0 0 1 21.25984,21.25984 z"
       id="path829"
       inkscape:connector-curvature="0" />
    <path
       inkscape:connector-curvature="0"
       style="fill:#000000;fill-opacity:1;stroke:none;stroke-width:1.54248452;stroke-miterlimit:4;stroke-dasharray:none;stroke-opacity:1"
       d="M 239.95954,678.7015 A 21.259843,21.25984 0 0 1 218.6997,699.96134 21.259843,21.25984 0 0 1 197.43985,678.7015 21.259843,21.25984 0 0 1 218.6997,657.44166 21.259843,21.25984 0 0 1 239.95954,678.7015 Z"
       id="path829-3" />
    <path
       inkscape:connector-curvature="0"
       style="fill:#000000;fill-opacity:1;stroke:none;stroke-width:1.54248452;stroke-miterlimit:4;stroke-dasharray:none;stroke-opacity:1"
       d="m 292.06341,630.81799 a 21.259843,21.25984 0 0 1 -21.25984,21.25984 21.259843,21.25984 0 0 1 -21.25984,-21.25984 21.259843,21.25984 0 0 1 21.25984,-21.25984 21.259843,21.25984 0 0 1 21.25984,21.25984 z"
       id="path829-7" />
    <path
       inkscape:connector-curvature="0"
       style="fill:#000000;fill-opacity:1;stroke:none;stroke-width:1.54248452;stroke-miterlimit:4;stroke-dasharray:none;stroke-opacity:1"
       d="m 292.06341,678.7015 a 21.259843,21.25984 0 0 1 -21.25984,21.25984 21.259843,21.25984 0 0 1 -21.25984,-21.25984 21.259843,21.25984 0 0 1 21.25984,-21.25984 21.259843,21.25984 0 0 1 21.25984,21.25984 z"
       id="path829-9" />
    <path
       style="color:#000000;font-style:normal;font-variant:normal;font-weight:normal;font-stretch:normal;font-size:medium;line-height:normal;font-family:sans-serif;text-indent:0;text-align:start;text-decoration:none;text-decoration-line:none;text-decoration-style:solid;text-decoration-color:#000000;letter-spacing:normal;word-spacing:normal;text-transform:none;direction:ltr;writing-mode:lr-tb;baseline-shift:baseline;text-anchor:start;white-space:normal;clip-rule:nonzero;display:inline;overflow:visible;visibility:visible;opacity:1;isolation:auto;mix-blend-mode:normal;color-interpolation:sRGB;color-interpolation-filters:linearRGB;solid-color:#000000;solid-opacity:1;fill:#000000;fill-opacity:1;fill-rule:nonzero;stroke:none;stroke-width:20.505476;stroke-linecap:round;stroke-linejoin:miter;stroke-miterlimit:4;stroke-dasharray:none;stroke-dashoffset:0;stroke-opacity:1;color-rendering:auto;image-rendering:auto;shape-rendering:auto;text-rendering:auto;enable-background:accumulate"
       d="m 178.66515,651.32265 a 10.253762,10.253762 0 0 0 -7.82422,3.66797 c -12.85452,14.90484 -34.83853,24.46486 -58.53906,24.46486 -23.700539,0 -45.682589,-9.56002 -58.537109,-24.46486 a 10.253762,10.253762 0 1 0 -15.52735,13.39259 c 17.43919,20.22075 44.94953,31.57813 74.064459,31.57813 29.11492,0 56.62722,-11.35738 74.0664,-31.57813 a 10.253762,10.253762 0 0 0 -7.70312,-17.06056 z"
       id="path4142-6-7-4"
       inkscape:connector-curvature="0" />
  </g>
</svg>
