999
dxfrw 0.6.3
  0
SECTION
  2
HEADER
  9
$ACADVER
  1
AC1021
  9
$DWGCODEPAGE
  3
ANSI_1252
  9
$INSBASE
 10
0
 20
0
 30
0
  9
$EXTMIN
 10
3.029272473740131
 20
-132.2368897520758
 30
0
  9
$EXTMAX
 10
61.53009680015234
 20
-6.237351597637942
 30
0
  9
$LIMMIN
 10
0
 20
0
  9
$LIMMAX
 10
420
 20
297
  9
$ORTHOMODE
 70
    0
  9
$REGENMODE
 70
    1
  9
$FILLMODE
 70
    1
  9
$QTEXTMODE
 70
    0
  9
$MIRRTEXT
 70
    0
  9
$LTSCALE
 40
1
  9
$ATTMODE
 70
    0
  9
$TEXTSIZE
 40
2.5
  9
$TRACEWID
 40
15.68
  9
$TEXTSTYLE
  7
STANDARD
  9
$CLAYER
  8
0
  9
$CELTYPE
  6
BYLAYER
  9
$CECOLOR
 62
  256
  9
$CELTSCALE
 40
1
  9
$DISPSILH
 70
    0
  9
$DIMSCALE
 40
2.5
  9
$DIMASZ
 40
2.5
  9
$DIMEXO
 40
0.625
  9
$DIMDLI
 40
3.75
  9
$DIMRND
 40
0
  9
$DIMDLE
 40
0
  9
$DIMEXE
 40
1.25
  9
$DIMTP
 40
0
  9
$DIMTM
 40
0
  9
$DIMTXT
 40
2.5
  9
$DIMCEN
 40
2.5
  9
$DIMTSZ
 40
0
  9
$DIMTOL
 70
    0
  9
$DIMLIM
 70
    0
  9
$DIMTIH
 70
    0
  9
$DIMTOH
 70
    0
  9
$DIMSE1
 70
    0
  9
$DIMSE2
 70
    0
  9
$DIMTAD
 70
    1
  9
$DIMZIN
 70
    8
  9
$DIMBLK
  1

  9
$DIMASO
 70
    1
  9
$DIMSHO
 70
    1
  9
$DIMPOST
  1

  9
$DIMAPOST
  1

  9
$DIMALT
 70
    0
  9
$DIMALTD
 70
    3
  9
$DIMALTF
 40
0.03937
  9
$DIMLFAC
 40
1
  9
$DIMTOFL
 70
    1
  9
$DIMTVP
 40
0
  9
$DIMTIX
 70
    0
  9
$DIMSOXD
 70
    0
  9
$DIMSAH
 70
    0
  9
$DIMBLK1
  1

  9
$DIMBLK2
  1

  9
$DIMSTYLE
  2
Standard
  9
$DIMCLRD
 70
    0
  9
$DIMCLRE
 70
    0
  9
$DIMCLRT
 70
    0
  9
$DIMTFAC
 40
1
  9
$DIMGAP
 40
0.625
  9
$DIMJUST
 70
    0
  9
$DIMSD1
 70
    0
  9
$DIMSD2
 70
    0
  9
$DIMTOLJ
 70
    0
  9
$DIMTZIN
 70
    8
  9
$DIMALTZ
 70
    0
  9
$DIMALTTZ
 70
    0
  9
$DIMUPT
 70
    0
  9
$DIMDEC
 70
    2
  9
$DIMTDEC
 70
    2
  9
$DIMALTU
 70
    2
  9
$DIMALTTD
 70
    3
  9
$DIMTXSTY
  7
STANDARD
  9
$DIMAUNIT
 70
    0
  9
$DIMADEC
 70
    0
  9
$DIMALTRND
 40
0
  9
$DIMAZIN
 70
    0
  9
$DIMDSEP
 70
   44
  9
$DIMATFIT
 70
    3
  9
$DIMFRAC
 70
    0
  9
$DIMLDRBLK
  1
STANDARD
  9
$DIMLUNIT
 70
    2
  9
$DIMLWD
 70
   -2
  9
$DIMLWE
 70
   -2
  9
$DIMTMOVE
 70
    0
  9
$DIMFXL
 40
1
  9
$DIMFXLON
 70
    0
  9
$DIMJOGANG
 40
0.7854
  9
$DIMTFILL
 70
    0
  9
$DIMTFILLCLR
 70
    0
  9
$DIMARCSYM
 70
    0
  9
$DIMLTYPE
  6

  9
$DIMLTEX1
  6

  9
$DIMLTEX2
  6

  9
$LUNITS
 70
    2
  9
$LUPREC
 70
    4
  9
$SKETCHINC
 40
1
  9
$FILLETRAD
 40
0
  9
$AUNITS
 70
    0
  9
$AUPREC
 70
    2
  9
$MENU
  1
.
  9
$ELEVATION
 40
0
  9
$PELEVATION
 40
0
  9
$THICKNESS
 40
0
  9
$LIMCHECK
 70
    0
  9
$CHAMFERA
 40
0
  9
$CHAMFERB
 40
0
  9
$CHAMFERC
 40
0
  9
$CHAMFERD
 40
0
  9
$SKPOLY
 70
    0
  9
$USRTIMER
 70
    1
  9
$ANGBASE
 50
0
  9
$ANGDIR
 70
    0
  9
$PDMODE
 70
   34
  9
$PDSIZE
 40
0
  9
$PLINEWID
 40
0
  9
$SPLFRAME
 70
    0
  9
$SPLINETYPE
 70
    2
  9
$SPLINESEGS
 70
    8
  9
$HANDSEED
  5
20000
  9
$SURFTAB1
 70
    6
  9
$SURFTAB2
 70
    6
  9
$SURFTYPE
 70
    6
  9
$SURFU
 70
    6
  9
$SURFV
 70
    6
  9
$UCSBASE
  2

  9
$UCSNAME
  2

  9
$UCSORG
 10
0
 20
0
 30
0
  9
$UCSXDIR
 10
1
 20
0
 30
0
  9
$UCSYDIR
 10
0
 20
1
 30
0
  9
$UCSORTHOREF
  2

  9
$UCSORTHOVIEW
 70
    0
  9
$UCSORGTOP
 10
0
 20
0
 30
0
  9
$UCSORGBOTTOM
 10
0
 20
0
 30
0
  9
$UCSORGLEFT
 10
0
 20
0
 30
0
  9
$UCSORGRIGHT
 10
0
 20
0
 30
0
  9
$UCSORGFRONT
 10
0
 20
0
 30
0
  9
$UCSORGBACK
 10
0
 20
0
 30
0
  9
$PUCSBASE
  2

  9
$PUCSNAME
  2

  9
$PUCSORG
 10
0
 20
0
 30
0
  9
$PUCSXDIR
 10
1
 20
0
 30
0
  9
$PUCSYDIR
 10
0
 20
1
 30
0
  9
$PUCSORTHOREF
  2

  9
$PUCSORTHOVIEW
 70
    0
  9
$PUCSORGTOP
 10
0
 20
0
 30
0
  9
$PUCSORGBOTTOM
 10
0
 20
0
 30
0
  9
$PUCSORGLEFT
 10
0
 20
0
 30
0
  9
$PUCSORGRIGHT
 10
0
 20
0
 30
0
  9
$PUCSORGFRONT
 10
0
 20
0
 30
0
  9
$PUCSORGBACK
 10
0
 20
0
 30
0
  9
$USERI1
 70
    0
  9
$USERI2
 70
    0
  9
$USERI3
 70
    0
  9
$USERI4
 70
    0
  9
$USERI5
 70
    0
  9
$USERR1
 40
0
  9
$USERR2
 40
0
  9
$USERR3
 40
0
  9
$USERR4
 40
0
  9
$USERR5
 40
0
  9
$WORLDVIEW
 70
    1
  9
$SHADEDGE
 70
    3
  9
$SHADEDIF
 70
   70
  9
$TILEMODE
 70
    1
  9
$MAXACTVP
 70
   64
  9
$PINSBASE
 10
0
 20
0
 30
0
  9
$PLIMCHECK
 70
    0
  9
$PEXTMIN
 10
0
 20
0
 30
0
  9
$PEXTMAX
 10
0
 20
0
 30
0
  9
$SNAPSTYLE
 70
    0
  9
$PLIMMIN
 10
0
 20
0
  9
$PLIMMAX
 10
210
 20
297
  9
$UNITMODE
 70
    0
  9
$VISRETAIN
 70
    1
  9
$PLINEGEN
 70
    0
  9
$PSLTSCALE
 70
    1
  9
$TREEDEPTH
 70
 3020
  9
$CMLSTYLE
  2
Standard
  9
$CMLJUST
 70
    0
  9
$CMLSCALE
 40
20
  9
$PROXYGRAPHICS
 70
    1
  9
$MEASUREMENT
 70
    1
  9
$CELWEIGHT
370
   -1
  9
$ENDCAPS
280
    0
  9
$JOINSTYLE
280
    0
  9
$LWDISPLAY
290
    0
  9
$INSUNITS
 70
    4
  9
$HYPERLINKBASE
  1

  9
$STYLESHEET
  1

  9
$XEDIT
290
    1
  9
$CEPSNTYPE
380
    0
  9
$PSTYLEMODE
290
    1
  9
$EXTNAMES
290
    1
  9
$PSVPSCALE
 40
1
  9
$OLESTARTUP
290
    0
  9
$SORTENTS
280
  127
  9
$INDEXCTL
280
    0
  9
$HIDETEXT
280
    1
  9
$XCLIPFRAME
290
    0
  9
$HALOGAP
280
    0
  9
$OBSCOLOR
 70
  257
  9
$OBSLTYPE
280
    0
  9
$INTERSECTIONDISPLAY
280
    0
  9
$INTERSECTIONCOLOR
 70
  257
  9
$DIMASSOC
280
    1
  9
$PROJECTNAME
  1

  9
$CAMERADISPLAY
290
    0
  9
$LENSLENGTH
 40
50
  9
$CAMERAHEIGHT
 40
0
  9
$STEPSPERSEC
 40
2
  9
$STEPSIZE
 40
50
  9
$3DDWFPREC
 40
2
  9
$PSOLWIDTH
 40
5
  9
$PSOLHEIGHT
 40
80
  9
$LOFTANG1
 40
1.570796326794897
  9
$LOFTANG2
 40
1.570796326794897
  9
$LOFTMAG1
 40
0
  9
$LOFTMAG2
 40
0
  9
$LOFTPARAM
 70
    7
  9
$LOFTNORMALS
280
    1
  9
$LATITUDE
 40
1
  9
$LONGITUDE
 40
1
  9
$NORTHDIRECTION
 40
0
  9
$TIMEZONE
 70
-8000
  9
$LIGHTGLYPHDISPLAY
280
    1
  9
$TILEMODELIGHTSYNCH
280
    1
  9
$SOLIDHIST
280
    1
  9
$SHOWHIST
280
    1
  9
$DWFFRAME
280
    2
  9
$DGNFRAME
280
    0
  9
$REALWORLDSCALE
290
    1
  9
$INTERFERECOLOR
 62
    1
  9
$CSHADOW
280
    0
  9
$SHADOWPLANELOCATION
 40
0
  0
ENDSEC
  0
SECTION
  2
CLASSES
  0
ENDSEC
  0
SECTION
  2
TABLES
  0
TABLE
  2
VPORT
  5
8
330
0
100
AcDbSymbolTable
 70
    1
  0
VPORT
  5
31
330
2
100
AcDbSymbolTableRecord
100
AcDbViewportTableRecord
  2
*ACTIVE
 70
    0
 10
0
 20
0
 11
1
 21
1
 12
131.3776496274844
 22
11.47332487521697
 13
0
 23
0
 14
10
 24
10
 15
10
 25
10
 16
0
 26
0
 36
1
 17
0
 27
0
 37
0
 40
279.2381040052805
 41
1.384259259259259
 42
50
 43
0
 44
0
 50
0
 51
0
 71
    0
 72
  100
 73
    1
 74
    3
 75
    0
 76
    1
 77
    0
 78
    0
281
    0
 65
    1
110
0
120
0
130
0
111
1
121
0
131
0
112
0
122
1
132
0
 79
    0
146
0
348
10020
 60
    7
 61
    5
292
1
282
    1
141
0
142
0
 63
  250
421
3358443
  0
ENDTAB
  0
TABLE
  2
LTYPE
  5
5
330
0
100
AcDbSymbolTable
 70
    4
  0
LTYPE
  5
14
330
5
100
AcDbSymbolTableRecord
100
AcDbLinetypeTableRecord
  2
ByBlock
 70
    0
  3

 72
   65
 73
    0
 40
0
  0
LTYPE
  5
15
330
5
100
AcDbSymbolTableRecord
100
AcDbLinetypeTableRecord
  2
ByLayer
 70
    0
  3

 72
   65
 73
    0
 40
0
  0
LTYPE
  5
16
330
5
100
AcDbSymbolTableRecord
100
AcDbLinetypeTableRecord
  2
Continuous
 70
    0
  3
Solid line
 72
   65
 73
    0
 40
0
  0
LTYPE
  5
32
330
5
100
AcDbSymbolTableRecord
100
AcDbLinetypeTableRecord
  2
DOT
 70
    0
  3
Dot . . . . . . . . . . . . . . . . . . . . . .
 72
   65
 73
    2
 40
6.35
 49
0
 74
    0
 49
-6.35
 74
    0
  0
LTYPE
  5
33
330
5
100
AcDbSymbolTableRecord
100
AcDbLinetypeTableRecord
  2
DOTTINY
 70
    0
  3
Dot (.15x) .....................................
 72
   65
 73
    2
 40
0.9525
 49
0
 74
    0
 49
-0.9525
 74
    0
  0
LTYPE
  5
34
330
5
100
AcDbSymbolTableRecord
100
AcDbLinetypeTableRecord
  2
DOT2
 70
    0
  3
Dot (.5x) .....................................
 72
   65
 73
    2
 40
3.175
 49
0
 74
    0
 49
-3.175
 74
    0
  0
LTYPE
  5
35
330
5
100
AcDbSymbolTableRecord
100
AcDbLinetypeTableRecord
  2
DOTX2
 70
    0
  3
Dot (2x) .  .  .  .  .  .  .  .  .  .  .  .  .
 72
   65
 73
    2
 40
12.7
 49
0
 74
    0
 49
-12.7
 74
    0
  0
LTYPE
  5
36
330
5
100
AcDbSymbolTableRecord
100
AcDbLinetypeTableRecord
  2
DASHED
 70
    0
  3
Dashed _ _ _ _ _ _ _ _ _ _ _ _ _ _ _ _ _
 72
   65
 73
    2
 40
19.05
 49
12.7
 74
    0
 49
-6.35
 74
    0
  0
LTYPE
  5
37
330
5
100
AcDbSymbolTableRecord
100
AcDbLinetypeTableRecord
  2
DASHEDTINY
 70
    0
  3
Dashed (.15x) _ _ _ _ _ _ _ _ _ _ _ _ _ _ _ _ _
 72
   65
 73
    2
 40
2.8575
 49
1.905
 74
    0
 49
-0.9525
 74
    0
  0
LTYPE
  5
38
330
5
100
AcDbSymbolTableRecord
100
AcDbLinetypeTableRecord
  2
DASHED2
 70
    0
  3
Dashed (.5x) _ _ _ _ _ _ _ _ _ _ _ _ _ _ _ _ _
 72
   65
 73
    2
 40
9.524999999999999
 49
6.35
 74
    0
 49
-3.175
 74
    0
  0
LTYPE
  5
39
330
5
100
AcDbSymbolTableRecord
100
AcDbLinetypeTableRecord
  2
DASHEDX2
 70
    0
  3
Dashed (2x) ____  ____  ____  ____  ____  ___
 72
   65
 73
    2
 40
38.09999999999999
 49
25.4
 74
    0
 49
-12.7
 74
    0
  0
LTYPE
  5
3A
330
5
100
AcDbSymbolTableRecord
100
AcDbLinetypeTableRecord
  2
DASHDOT
 70
    0
  3
Dash dot __ . __ . __ . __ . __ . __ . __ . __
 72
   65
 73
    4
 40
25.4
 49
12.7
 74
    0
 49
-6.35
 74
    0
 49
0
 74
    0
 49
-6.35
 74
    0
  0
LTYPE
  5
3B
330
5
100
AcDbSymbolTableRecord
100
AcDbLinetypeTableRecord
  2
DASHDOTTINY
 70
    0
  3
Dash dot (.15x) _._._._._._._._._._._._._._._.
 72
   65
 73
    4
 40
3.81
 49
1.905
 74
    0
 49
-0.9525
 74
    0
 49
0
 74
    0
 49
-0.9525
 74
    0
  0
LTYPE
  5
3C
330
5
100
AcDbSymbolTableRecord
100
AcDbLinetypeTableRecord
  2
DASHDOT2
 70
    0
  3
Dash dot (.5x) _._._._._._._._._._._._._._._.
 72
   65
 73
    4
 40
12.7
 49
6.35
 74
    0
 49
-3.175
 74
    0
 49
0
 74
    0
 49
-3.175
 74
    0
  0
LTYPE
  5
3D
330
5
100
AcDbSymbolTableRecord
100
AcDbLinetypeTableRecord
  2
DASHDOTX2
 70
    0
  3
Dash dot (2x) ____  .  ____  .  ____  .  ___
 72
   65
 73
    4
 40
50.8
 49
25.4
 74
    0
 49
-12.7
 74
    0
 49
0
 74
    0
 49
-12.7
 74
    0
  0
LTYPE
  5
3E
330
5
100
AcDbSymbolTableRecord
100
AcDbLinetypeTableRecord
  2
DIVIDE
 70
    0
  3
Divide ____ . . ____ . . ____ . . ____ . . ____
 72
   65
 73
    6
 40
31.75
 49
12.7
 74
    0
 49
-6.35
 74
    0
 49
0
 74
    0
 49
-6.35
 74
    0
 49
0
 74
    0
 49
-6.35
 74
    0
  0
LTYPE
  5
3F
330
5
100
AcDbSymbolTableRecord
100
AcDbLinetypeTableRecord
  2
DIVIDETINY
 70
    0
  3
Divide (.15x) __..__..__..__..__..__..__..__.._
 72
   65
 73
    6
 40
4.7625
 49
1.905
 74
    0
 49
-0.9525
 74
    0
 49
0
 74
    0
 49
-0.9525
 74
    0
 49
0
 74
    0
 49
-0.9525
 74
    0
  0
LTYPE
  5
40
330
5
100
AcDbSymbolTableRecord
100
AcDbLinetypeTableRecord
  2
DIVIDE2
 70
    0
  3
Divide (.5x) __..__..__..__..__..__..__..__.._
 72
   65
 73
    6
 40
15.875
 49
6.35
 74
    0
 49
-3.175
 74
    0
 49
0
 74
    0
 49
-3.175
 74
    0
 49
0
 74
    0
 49
-3.175
 74
    0
  0
LTYPE
  5
41
330
5
100
AcDbSymbolTableRecord
100
AcDbLinetypeTableRecord
  2
DIVIDEX2
 70
    0
  3
Divide (2x) ________  .  .  ________  .  .  _
 72
   65
 73
    6
 40
63.5
 49
25.4
 74
    0
 49
-12.7
 74
    0
 49
0
 74
    0
 49
-12.7
 74
    0
 49
0
 74
    0
 49
-12.7
 74
    0
  0
LTYPE
  5
42
330
5
100
AcDbSymbolTableRecord
100
AcDbLinetypeTableRecord
  2
BORDER
 70
    0
  3
Border __ __ . __ __ . __ __ . __ __ . __ __ .
 72
   65
 73
    6
 40
44.45
 49
12.7
 74
    0
 49
-6.35
 74
    0
 49
12.7
 74
    0
 49
-6.35
 74
    0
 49
0
 74
    0
 49
-6.35
 74
    0
  0
LTYPE
  5
43
330
5
100
AcDbSymbolTableRecord
100
AcDbLinetypeTableRecord
  2
BORDERTINY
 70
    0
  3
Border (.15x) __.__.__.__.__.__.__.__.__.__.__.
 72
   65
 73
    6
 40
6.6675
 49
1.905
 74
    0
 49
-0.9525
 74
    0
 49
1.905
 74
    0
 49
-0.9525
 74
    0
 49
0
 74
    0
 49
-0.9525
 74
    0
  0
LTYPE
  5
44
330
5
100
AcDbSymbolTableRecord
100
AcDbLinetypeTableRecord
  2
BORDER2
 70
    0
  3
Border (.5x) __.__.__.__.__.__.__.__.__.__.__.
 72
   65
 73
    6
 40
22.225
 49
6.35
 74
    0
 49
-3.175
 74
    0
 49
6.35
 74
    0
 49
-3.175
 74
    0
 49
0
 74
    0
 49
-3.175
 74
    0
  0
LTYPE
  5
45
330
5
100
AcDbSymbolTableRecord
100
AcDbLinetypeTableRecord
  2
BORDERX2
 70
    0
  3
Border (2x) ____  ____  .  ____  ____  .  ___
 72
   65
 73
    6
 40
88.89999999999999
 49
25.4
 74
    0
 49
-12.7
 74
    0
 49
25.4
 74
    0
 49
-12.7
 74
    0
 49
0
 74
    0
 49
-12.7
 74
    0
  0
LTYPE
  5
46
330
5
100
AcDbSymbolTableRecord
100
AcDbLinetypeTableRecord
  2
CENTER
 70
    0
  3
Center ____ _ ____ _ ____ _ ____ _ ____ _ ____
 72
   65
 73
    4
 40
50.8
 49
31.75
 74
    0
 49
-6.35
 74
    0
 49
6.35
 74
    0
 49
-6.35
 74
    0
  0
LTYPE
  5
47
330
5
100
AcDbSymbolTableRecord
100
AcDbLinetypeTableRecord
  2
CENTERTINY
 70
    0
  3
Center (.15x) ___ _ ___ _ ___ _ ___ _ ___ _ ___
 72
   65
 73
    4
 40
7.619999999999999
 49
4.7625
 74
    0
 49
-0.9525
 74
    0
 49
0.9525
 74
    0
 49
-0.9525
 74
    0
  0
LTYPE
  5
48
330
5
100
AcDbSymbolTableRecord
100
AcDbLinetypeTableRecord
  2
CENTER2
 70
    0
  3
Center (.5x) ___ _ ___ _ ___ _ ___ _ ___ _ ___
 72
   65
 73
    4
 40
28.575
 49
19.05
 74
    0
 49
-3.175
 74
    0
 49
3.175
 74
    0
 49
-3.175
 74
    0
  0
LTYPE
  5
49
330
5
100
AcDbSymbolTableRecord
100
AcDbLinetypeTableRecord
  2
CENTERX2
 70
    0
  3
Center (2x) ________  __  ________  __  _____
 72
   65
 73
    4
 40
101.6
 49
63.5
 74
    0
 49
-12.7
 74
    0
 49
12.7
 74
    0
 49
-12.7
 74
    0
  0
ENDTAB
  0
TABLE
  2
LAYER
  5
2
330
0
100
AcDbSymbolTable
 70
    1
  0
LAYER
  5
10
330
2
100
AcDbSymbolTableRecord
100
AcDbLayerTableRecord
  2
0
 70
    0
 62
    7
  6
CONTINUOUS
370
   -3
390
F
  0
ENDTAB
  0
TABLE
  2
STYLE
  5
3
330
0
100
AcDbSymbolTable
 70
    3
  0
STYLE
  5
4A
330
2
100
AcDbSymbolTableRecord
100
AcDbTextStyleTableRecord
  2
Standard
 70
    0
 40
0
 41
1
 50
0
 71
    0
 42
1
  3
txt
  4

  0
ENDTAB
  0
TABLE
  2
VIEW
  5
6
330
0
100
AcDbSymbolTable
 70
    0
  0
ENDTAB
  0
TABLE
  2
UCS
  5
7
330
0
100
AcDbSymbolTable
 70
    0
  0
ENDTAB
  0
TABLE
  2
APPID
  5
9
330
0
100
AcDbSymbolTable
 70
    1
  0
APPID
  5
12
330
9
100
AcDbSymbolTableRecord
100
AcDbRegAppTableRecord
  2
ACAD
 70
    0
  0
APPID
  5
4B
330
9
100
AcDbSymbolTableRecord
100
AcDbRegAppTableRecord
  2
LibreCad
 70
    0
  0
ENDTAB
  0
TABLE
  2
DIMSTYLE
  5
A
330
0
100
AcDbSymbolTable
 70
    1
100
AcDbDimStyleTable
 71
    1
  0
DIMSTYLE
105
4C
330
A
100
AcDbSymbolTableRecord
100
AcDbDimStyleTableRecord
  2
Standard
 70
    0
 40
1
 41
2.5
 42
0.625
 43
0.38
 44
1.25
 45
0
 46
0
 47
0
 48
0
 49
1
140
2.5
141
0.09
142
2.5
143
25.4
144
1
145
0
146
1
147
0.625
148
0
 71
    0
 72
    0
 73
    0
 74
    1
 75
    0
 76
    0
 77
    0
 78
    1
 79
    0
170
    0
171
    2
172
    0
173
    0
174
    0
175
    0
176
    0
177
    0
178
    0
179
    0
271
    2
272
    4
273
    2
274
    2
275
    0
276
    0
277
    2
278
    0
279
    0
280
    0
281
    0
282
    0
283
    1
284
    0
285
    0
286
    0
288
    0
289
    3
340
standard
341

371
   -2
372
   -2
  0
ENDTAB
  0
TABLE
  2
BLOCK_RECORD
  5
1
330
0
100
AcDbSymbolTable
 70
    2
  0
BLOCK_RECORD
  5
1F
330
1
100
AcDbSymbolTableRecord
100
AcDbBlockTableRecord
  2
*Model_Space
 70
    0
280
    1
281
    0
  0
BLOCK_RECORD
  5
1E
330
1
100
AcDbSymbolTableRecord
100
AcDbBlockTableRecord
  2
*Paper_Space
 70
    0
280
    1
281
    0
  0
ENDTAB
  0
ENDSEC
  0
SECTION
  2
BLOCKS
  0
BLOCK
  5
20
330
1F
100
AcDbEntity
  8
0
100
AcDbBlockBegin
  2
*Model_Space
 70
    0
 10
0
 20
0
 30
0
  3
*Model_Space
  1

  0
ENDBLK
  5
21
330
1F
100
AcDbEntity
  8
0
100
AcDbBlockEnd
  0
BLOCK
  5
1C
330
1B
100
AcDbEntity
  8
0
100
AcDbBlockBegin
  2
*Paper_Space
 70
    0
 10
0
 20
0
 30
0
  3
*Paper_Space
  1

  0
ENDBLK
  5
1D
330
1F
100
AcDbEntity
  8
0
100
AcDbBlockEnd
  0
ENDSEC
  0
SECTION
  2
ENTITIES
  0
LINE
  5
4D
100
AcDbEntity
  8
0
  6
ByLayer
 62
  256
370
   -1
100
AcDbLine
 10
61.53009680015234
 20
-35.48723772892457
 11
61.52079958421378
 21
-34.77409993538361
  0
LINE
  5
4E
100
AcDbEntity
  8
0
  6
ByLayer
 62
  256
370
   -1
100
AcDbLine
 10
61.52079958421378
 20
-34.77409993538361
 11
61.49494723779348
 21
-34.06304232010346
  0
LINE
  5
4F
100
AcDbEntity
  8
0
  6
ByLayer
 62
  256
370
   -1
100
AcDbLine
 10
61.49494723779348
 20
-34.06304232010346
 11
61.45155417424826
 21
-33.35195745357972
  0
LINE
  5
50
100
AcDbEntity
  8
0
  6
ByLayer
 62
  256
370
   -1
100
AcDbLine
 10
61.45155417424826
 20
-33.35195745357972
 11
61.39160143834738
 21
-32.64192630180817
  0
LINE
  5
51
100
AcDbEntity
  8
0
  6
ByLayer
 62
  256
370
   -1
100
AcDbLine
 10
61.39160143834738
 20
-32.64192630180817
 11
61.3130588124433
 21
-31.93397532829743
  0
LINE
  5
52
100
AcDbEntity
  8
0
  6
ByLayer
 62
  256
370
   -1
100
AcDbLine
 10
61.3130588124433
 20
-31.93397532829743
 11
61.2179610560575
 21
-31.2280772818039
  0
LINE
  5
53
100
AcDbEntity
  8
0
  6
ByLayer
 62
  256
370
   -1
100
AcDbLine
 10
61.2179610560575
 20
-31.2280772818039
 11
61.10531804067282
 21
-30.52423216232758
  0
LINE
  5
54
100
AcDbEntity
  8
0
  6
ByLayer
 62
  256
370
   -1
100
AcDbLine
 10
61.10531804067282
 20
-30.52423216232758
 11
60.97611989480643
 21
-29.82452923187714
  0
LINE
  5
55
100
AcDbEntity
  8
0
  6
ByLayer
 62
  256
370
   -1
100
AcDbLine
 10
60.97611989480643
 20
-29.82452923187714
 11
60.83038932782798
 21
-29.12689739593964
  0
LINE
  5
56
100
AcDbEntity
  8
0
  6
ByLayer
 62
  256
370
   -1
100
AcDbLine
 10
60.83038932782798
 20
-29.12689739593964
 11
60.66709079248098
 21
-28.43340774902802
  0
LINE
  5
57
100
AcDbEntity
  8
0
  6
ByLayer
 62
  256
370
   -1
100
AcDbLine
 10
60.66709079248098
 20
-28.43340774902802
 11
60.48623337251334
 21
-27.74506858715516
  0
LINE
  5
58
100
AcDbEntity
  8
0
  6
ByLayer
 62
  256
370
   -1
100
AcDbLine
 10
60.48623337251334
 20
-27.74506858715516
 11
60.28986545306829
 21
-27.05984515079956
  0
LINE
  5
59
100
AcDbEntity
  8
0
  6
ByLayer
 62
  256
370
   -1
100
AcDbLine
 10
60.28986545306829
 20
-27.05984515079956
 11
60.07591593963294
 21
-26.38082591423493
  0
LINE
  5
5A
100
AcDbEntity
  8
0
  6
ByLayer
 62
  256
370
   -1
100
AcDbLine
 10
60.07591593963294
 20
-26.38082591423493
 11
59.84647409421591
 21
-25.70592161545258
  0
LINE
  5
5B
100
AcDbEntity
  8
0
  6
ByLayer
 62
  256
370
   -1
100
AcDbLine
 10
59.84647409421591
 20
-25.70592161545258
 11
59.5994551966825
 21
-25.03825706371765
  0
LINE
  5
5C
100
AcDbEntity
  8
0
  6
ByLayer
 62
  256
370
   -1
100
AcDbLine
 10
59.5994551966825
 20
-25.03825706371765
 11
59.33694396716741
 21
-24.37577024826508
  0
LINE
  5
5D
100
AcDbEntity
  8
0
  6
ByLayer
 62
  256
370
   -1
100
AcDbLine
 10
59.33694396716741
 20
-24.37577024826508
 11
59.05893132192283
 21
-23.72051409611207
  0
LINE
  5
5E
100
AcDbEntity
  8
0
  6
ByLayer
 62
  256
370
   -1
100
AcDbLine
 10
59.05893132192283
 20
-23.72051409611207
 11
58.7643771718183
 21
-23.07145306000214
  0
LINE
  5
5F
100
AcDbEntity
  8
0
  6
ByLayer
 62
  256
370
   -1
100
AcDbLine
 10
58.7643771718183
 20
-23.07145306000214
 11
58.45432160598425
 21
-22.43067640194397
  0
LINE
  5
60
100
AcDbEntity
  8
0
  6
ByLayer
 62
  256
370
   -1
100
AcDbLine
 10
58.45432160598425
 20
-22.43067640194397
 11
58.12771090966849
 21
-21.79713040718537
  0
LINE
  5
61
100
AcDbEntity
  8
0
  6
ByLayer
 62
  256
370
   -1
100
AcDbLine
 10
58.12771090966849
 20
-21.79713040718537
 11
57.78768351775794
 21
-21.17183245548706
  0
LINE
  5
62
100
AcDbEntity
  8
0
  6
ByLayer
 62
  256
370
   -1
100
AcDbLine
 10
57.78768351775794
 20
-21.17183245548706
 11
57.43112824660925
 21
-20.55481888184052
  0
LINE
  5
63
100
AcDbEntity
  8
0
  6
ByLayer
 62
  256
370
   -1
100
AcDbLine
 10
57.43112824660925
 20
-20.55481888184052
 11
57.06008893949179
 21
-19.94608060249787
  0
LINE
  5
64
100
AcDbEntity
  8
0
  6
ByLayer
 62
  256
370
   -1
100
AcDbLine
 10
57.06008893949179
 20
-19.94608060249787
 11
56.67457468015342
 21
-19.34766146072846
  0
LINE
  5
65
100
AcDbEntity
  8
0
  6
ByLayer
 62
  256
370
   -1
100
AcDbLine
 10
56.67457468015342
 20
-19.34766146072846
 11
56.27357263070731
 21
-18.75853499302369
  0
LINE
  5
66
100
AcDbEntity
  8
0
  6
ByLayer
 62
  256
370
   -1
100
AcDbLine
 10
56.27357263070731
 20
-18.75853499302369
 11
55.85912209254889
 21
-18.17872845062714
  0
LINE
  5
67
100
AcDbEntity
  8
0
  6
ByLayer
 62
  256
370
   -1
100
AcDbLine
 10
55.85912209254889
 20
-18.17872845062714
 11
55.43123669129996
 21
-17.61029476055604
  0
LINE
  5
68
100
AcDbEntity
  8
0
  6
ByLayer
 62
  256
370
   -1
100
AcDbLine
 10
55.43123669129996
 20
-17.61029476055604
 11
54.98889904719977
 21
-17.05116282829743
  0
LINE
  5
69
100
AcDbEntity
  8
0
  6
ByLayer
 62
  256
370
   -1
100
AcDbLine
 10
54.98889904719977
 20
-17.05116282829743
 11
54.53310837251333
 21
-16.50443021187287
  0
LINE
  5
6A
100
AcDbEntity
  8
0
  6
ByLayer
 62
  256
370
   -1
100
AcDbLine
 10
54.53310837251333
 20
-16.50443021187287
 11
54.06388737661032
 21
-15.96801673302155
  0
LINE
  5
6B
100
AcDbEntity
  8
0
  6
ByLayer
 62
  256
370
   -1
100
AcDbLine
 10
54.06388737661032
 20
-15.96801673302155
 11
53.58226252299933
 21
-15.44297610649567
  0
LINE
  5
6C
100
AcDbEntity
  8
0
  6
ByLayer
 62
  256
370
   -1
100
AcDbLine
 10
53.58226252299933
 20
-15.44297610649567
 11
53.08824289542822
 21
-14.93036204704743
  0
LINE
  5
6D
100
AcDbEntity
  8
0
  6
ByLayer
 62
  256
370
   -1
100
AcDbLine
 10
53.08824289542822
 20
-14.93036204704743
 11
52.58179670077948
 21
-14.4301291359375
  0
LINE
  5
6E
100
AcDbEntity
  8
0
  6
ByLayer
 62
  256
370
   -1
100
AcDbLine
 10
52.58179670077948
 20
-14.4301291359375
 11
52.06296935779242
 21
-13.94126907715302
  0
LINE
  5
6F
100
AcDbEntity
  8
0
  6
ByLayer
 62
  256
370
   -1
100
AcDbLine
 10
52.06296935779242
 20
-13.94126907715302
 11
51.53174269897131
 21
-13.46583479771119
  0
LINE
  5
70
100
AcDbEntity
  8
0
  6
ByLayer
 62
  256
370
   -1
100
AcDbLine
 10
51.53174269897131
 20
-13.46583479771119
 11
50.99016965133337
 21
-13.00385354885559
  0
LINE
  5
71
100
AcDbEntity
  8
0
  6
ByLayer
 62
  256
370
   -1
100
AcDbLine
 10
50.99016965133337
 20
-13.00385354885559
 11
50.43722375137
 21
-12.55530716309052
  0
LINE
  5
72
100
AcDbEntity
  8
0
  6
ByLayer
 62
  256
370
   -1
100
AcDbLine
 10
50.43722375137
 20
-12.55530716309052
 11
49.8729231665769
 21
-12.11915100941162
  0
LINE
  5
73
100
AcDbEntity
  8
0
  6
ByLayer
 62
  256
370
   -1
100
AcDbLine
 10
49.8729231665769
 20
-12.11915100941162
 11
49.29931174022344
 21
-11.69850989708405
  0
LINE
  5
74
100
AcDbEntity
  8
0
  6
ByLayer
 62
  256
370
   -1
100
AcDbLine
 10
49.29931174022344
 20
-11.69850989708405
 11
48.71434108716635
 21
-11.29026810059052
  0
LINE
  5
75
100
AcDbEntity
  8
0
  6
ByLayer
 62
  256
370
   -1
100
AcDbLine
 10
48.71434108716635
 20
-11.29026810059052
 11
48.12108605605749
 21
-10.89751409420472
  0
LINE
  5
76
100
AcDbEntity
  8
0
  6
ByLayer
 62
  256
370
   -1
100
AcDbLine
 10
48.12108605605749
 20
-10.89751409420472
 11
47.51750734550146
 21
-10.51925774940949
  0
LINE
  5
77
100
AcDbEntity
  8
0
  6
ByLayer
 62
  256
370
   -1
100
AcDbLine
 10
47.51750734550146
 20
-10.51925774940949
 11
46.90463141900686
 21
-10.15544456371765
  0
LINE
  5
78
100
AcDbEntity
  8
0
  6
ByLayer
 62
  256
370
   -1
100
AcDbLine
 10
46.90463141900686
 20
-10.15544456371765
 11
46.2834847400823
 21
-9.807155503125003
  0
LINE
  5
79
100
AcDbEntity
  8
0
  6
ByLayer
 62
  256
370
   -1
100
AcDbLine
 10
46.2834847400823
 20
-9.807155503125003
 11
45.65405368310599
 21
-9.47331868538361
  0
LINE
  5
7A
100
AcDbEntity
  8
0
  6
ByLayer
 62
  256
370
   -1
100
AcDbLine
 10
45.65405368310599
 20
-9.47331868538361
 11
45.01637458306936
 21
-9.15602337250214
  0
LINE
  5
7B
100
AcDbEntity
  8
0
  6
ByLayer
 62
  256
370
   -1
100
AcDbLine
 10
45.01637458306936
 20
-9.15602337250214
 11
44.37145573598531
 21
-8.853207553715519
  0
LINE
  5
7C
100
AcDbEntity
  8
0
  6
ByLayer
 62
  256
370
   -1
100
AcDbLine
 10
44.37145573598531
 20
-8.853207553715519
 11
43.71929714185385
 21
-8.566924156040958
  0
LINE
  5
7D
100
AcDbEntity
  8
0
  6
ByLayer
 62
  256
370
   -1
100
AcDbLine
 10
43.71929714185385
 20
-8.566924156040958
 11
43.0609298060575
 21
-8.296146715969853
  0
LINE
  5
7E
100
AcDbEntity
  8
0
  6
ByLayer
 62
  256
370
   -1
100
AcDbLine
 10
43.0609298060575
 20
-8.296146715969853
 11
42.39534089070943
 21
-8.041883529515079
  0
LINE
  5
7F
100
AcDbEntity
  8
0
  6
ByLayer
 62
  256
370
   -1
100
AcDbLine
 10
42.39534089070943
 20
-8.041883529515079
 11
41.7235432336965
 21
-7.803153551907353
  0
LINE
  5
80
100
AcDbEntity
  8
0
  6
ByLayer
 62
  256
370
   -1
100
AcDbLine
 10
41.7235432336965
 20
-7.803153551907353
 11
41.04763063890128
 21
-7.5819552076767
  0
LINE
  5
81
100
AcDbEntity
  8
0
  6
ByLayer
 62
  256
370
   -1
100
AcDbLine
 10
41.04763063890128
 20
-7.5819552076767
 11
40.36548886400847
 21
-7.376299156040957
  0
LINE
  5
82
100
AcDbEntity
  8
0
  6
ByLayer
 62
  256
370
   -1
100
AcDbLine
 10
40.36548886400847
 20
-7.376299156040957
 11
39.6782034168878
 21
-7.188192905278018
  0
LINE
  5
83
100
AcDbEntity
  8
0
  6
ByLayer
 62
  256
370
   -1
100
AcDbLine
 10
39.6782034168878
 20
-7.188192905278018
 11
38.98676442605642
 21
-7.016628159375003
  0
LINE
  5
84
100
AcDbEntity
  8
0
  6
ByLayer
 62
  256
370
   -1
100
AcDbLine
 10
38.98676442605642
 20
-7.016628159375003
 11
38.29121049744276
 21
-6.861604918331913
  0
LINE
  5
85
100
AcDbEntity
  8
0
  6
ByLayer
 62
  256
370
   -1
100
AcDbLine
 10
38.29121049744276
 20
-6.861604918331913
 11
37.59253175956396
 21
-6.723105014653018
  0
LINE
  5
86
100
AcDbEntity
  8
0
  6
ByLayer
 62
  256
370
   -1
100
AcDbLine
 10
37.59253175956396
 20
-6.723105014653018
 11
36.89076908928541
 21
-6.602182163090518
  0
LINE
  5
87
100
AcDbEntity
  8
0
  6
ByLayer
 62
  256
370
   -1
100
AcDbLine
 10
36.89076908928541
 20
-6.602182163090518
 11
36.18589977723745
 21
-6.498836363644412
  0
LINE
  5
88
100
AcDbEntity
  8
0
  6
ByLayer
 62
  256
370
   -1
100
AcDbLine
 10
36.18589977723745
 20
-6.498836363644412
 11
35.47897299629835
 21
-6.41200481781464
  0
LINE
  5
89
100
AcDbEntity
  8
0
  6
ByLayer
 62
  256
370
   -1
100
AcDbLine
 10
35.47897299629835
 20
-6.41200481781464
 11
34.76997057897238
 21
-6.342759407849124
  0
LINE
  5
8A
100
AcDbEntity
  8
0
  6
ByLayer
 62
  256
370
   -1
100
AcDbLine
 10
34.76997057897238
 20
-6.342759407849124
 11
34.05993942720083
 21
-6.291091050000004
  0
LINE
  5
8B
100
AcDbEntity
  8
0
  6
ByLayer
 62
  256
370
   -1
100
AcDbLine
 10
34.05993942720083
 20
-6.291091050000004
 11
33.34783036810545
 21
-6.255946029515078
  0
LINE
  5
8C
100
AcDbEntity
  8
0
  6
ByLayer
 62
  256
370
   -1
100
AcDbLine
 10
33.34783036810545
 20
-6.255946029515078
 11
32.63574174744276
 21
-6.239413608403018
  0
LINE
  5
8D
100
AcDbEntity
  8
0
  6
ByLayer
 62
  256
370
   -1
100
AcDbLine
 10
32.63574174744276
 20
-6.239413608403018
 11
31.92363495928434
 21
-6.239413608403019
  0
LINE
  5
8E
100
AcDbEntity
  8
0
  6
ByLayer
 62
  256
370
   -1
100
AcDbLine
 10
31.92363495928434
 20
-6.239413608403019
 11
31.21152590018896
 21
-6.255946029515079
  0
LINE
  5
8F
100
AcDbEntity
  8
0
  6
ByLayer
 62
  256
370
   -1
100
AcDbLine
 10
31.21152590018896
 20
-6.255946029515079
 11
30.50046601397184
 21
-6.291091050000003
  0
LINE
  5
90
100
AcDbEntity
  8
0
  6
ByLayer
 62
  256
370
   -1
100
AcDbLine
 10
30.50046601397184
 20
-6.291091050000003
 11
29.78940612775472
 21
-6.342759407849123
  0
LINE
  5
91
100
AcDbEntity
  8
0
  6
ByLayer
 62
  256
370
   -1
100
AcDbLine
 10
29.78940612775472
 20
-6.342759407849123
 11
29.08040143949179
 21
-6.41200481781464
  0
LINE
  5
92
100
AcDbEntity
  8
0
  6
ByLayer
 62
  256
370
   -1
100
AcDbLine
 10
29.08040143949179
 20
-6.41200481781464
 11
28.37345649105696
 21
-6.498836363644412
  0
LINE
  5
93
100
AcDbEntity
  8
0
  6
ByLayer
 62
  256
370
   -1
100
AcDbLine
 10
28.37345649105696
 20
-6.498836363644412
 11
27.66858717900899
 21
-6.602182163090519
  0
LINE
  5
94
100
AcDbEntity
  8
0
  6
ByLayer
 62
  256
370
   -1
100
AcDbLine
 10
27.66858717900899
 20
-6.602182163090519
 11
26.96682450873045
 21
-6.723105014653019
  0
LINE
  5
95
100
AcDbEntity
  8
0
  6
ByLayer
 62
  256
370
   -1
100
AcDbLine
 10
26.96682450873045
 20
-6.723105014653019
 11
26.26816620928434
 21
-6.861604918331912
  0
LINE
  5
96
100
AcDbEntity
  8
0
  6
ByLayer
 62
  256
370
   -1
100
AcDbLine
 10
26.26816620928434
 20
-6.861604918331912
 11
25.57259184223798
 21
-7.016628159375003
  0
LINE
  5
97
100
AcDbEntity
  8
0
  6
ByLayer
 62
  256
370
   -1
100
AcDbLine
 10
25.57259184223798
 20
-7.016628159375003
 11
24.8811732898393
 21
-7.188192905278019
  0
LINE
  5
98
100
AcDbEntity
  8
0
  6
ByLayer
 62
  256
370
   -1
100
AcDbLine
 10
24.8811732898393
 20
-7.188192905278019
 11
24.19489613873152
 21
-7.376299156040957
  0
LINE
  5
99
100
AcDbEntity
  8
0
  6
ByLayer
 62
  256
370
   -1
100
AcDbLine
 10
24.19489613873152
 20
-7.376299156040957
 11
23.51277253133443
 21
-7.5819552076767
  0
LINE
  5
9A
100
AcDbEntity
  8
0
  6
ByLayer
 62
  256
370
   -1
100
AcDbLine
 10
23.51277253133443
 20
-7.5819552076767
 11
22.8358130345979
 21
-7.803153551907352
  0
LINE
  5
9B
100
AcDbEntity
  8
0
  6
ByLayer
 62
  256
370
   -1
100
AcDbLine
 10
22.8358130345979
 20
-7.803153551907352
 11
22.164013106648
 21
-8.041883529515077
  0
LINE
  5
9C
100
AcDbEntity
  8
0
  6
ByLayer
 62
  256
370
   -1
100
AcDbLine
 10
22.164013106648
 20
-8.041883529515077
 11
21.49842646223691
 21
-8.296146715969853
  0
LINE
  5
9D
100
AcDbEntity
  8
0
  6
ByLayer
 62
  256
370
   -1
100
AcDbLine
 10
21.49842646223691
 20
-8.296146715969853
 11
20.84007729393629
 21
-8.566924156040958
  0
LINE
  5
9E
100
AcDbEntity
  8
0
  6
ByLayer
 62
  256
370
   -1
100
AcDbLine
 10
20.84007729393629
 20
-8.566924156040958
 11
20.1879198352733
 21
-8.853207553715519
  0
LINE
  5
9F
100
AcDbEntity
  8
0
  6
ByLayer
 62
  256
370
   -1
100
AcDbLine
 10
20.1879198352733
 20
-8.853207553715519
 11
19.54300098818926
 21
-9.15602337250214
  0
LINE
  5
A0
100
AcDbEntity
  8
0
  6
ByLayer
 62
  256
370
   -1
100
AcDbLine
 10
19.54300098818926
 20
-9.15602337250214
 11
18.90530258518842
 21
-9.47331868538361
  0
LINE
  5
A1
100
AcDbEntity
  8
0
  6
ByLayer
 62
  256
370
   -1
100
AcDbLine
 10
18.90530258518842
 20
-9.47331868538361
 11
18.27588969570783
 21
-9.807155503125003
  0
LINE
  5
A2
100
AcDbEntity
  8
0
  6
ByLayer
 62
  256
370
   -1
100
AcDbLine
 10
18.27588969570783
 20
-9.807155503125003
 11
17.65474528772024
 21
-10.15544456371765
  0
LINE
  5
A3
100
AcDbEntity
  8
0
  6
ByLayer
 62
  256
370
   -1
100
AcDbLine
 10
17.65474528772024
 20
-10.15544456371765
 11
17.04185005826143
 21
-10.51925774940949
  0
LINE
  5
A4
100
AcDbEntity
  8
0
  6
ByLayer
 62
  256
370
   -1
100
AcDbLine
 10
17.04185005826143
 20
-10.51925774940949
 11
16.43929894668249
 21
-10.89751409420471
  0
LINE
  5
A5
100
AcDbEntity
  8
0
  6
ByLayer
 62
  256
370
   -1
100
AcDbLine
 10
16.43929894668249
 20
-10.89751409420471
 11
15.84503334862379
 21
-11.29026810059052
  0
LINE
  5
A6
100
AcDbEntity
  8
0
  6
ByLayer
 62
  256
370
   -1
100
AcDbLine
 10
15.84503334862379
 20
-11.29026810059052
 11
15.26004679900793
 21
-11.69850989708405
  0
LINE
  5
A7
100
AcDbEntity
  8
0
  6
ByLayer
 62
  256
370
   -1
100
AcDbLine
 10
15.26004679900793
 20
-11.69850989708405
 11
14.68645126921323
 21
-12.11915100941162
  0
LINE
  5
A8
100
AcDbEntity
  8
0
  6
ByLayer
 62
  256
370
   -1
100
AcDbLine
 10
14.68645126921323
 20
-12.11915100941162
 11
14.12213251692441
 21
-12.55530716309052
  0
LINE
  5
A9
100
AcDbEntity
  8
0
  6
ByLayer
 62
  256
370
   -1
100
AcDbLine
 10
14.12213251692441
 20
-12.55530716309052
 11
13.56920705539373
 21
-13.0038535488556
  0
LINE
  5
AA
100
AcDbEntity
  8
0
  6
ByLayer
 62
  256
370
   -1
100
AcDbLine
 10
13.56920705539373
 20
-13.0038535488556
 11
13.02763400775579
 21
-13.46583479771119
  0
LINE
  5
AB
100
AcDbEntity
  8
0
  6
ByLayer
 62
  256
370
   -1
100
AcDbLine
 10
13.02763400775579
 20
-13.46583479771119
 11
12.49638691050199
 21
-13.94126907715302
  0
LINE
  5
AC
100
AcDbEntity
  8
0
  6
ByLayer
 62
  256
370
   -1
100
AcDbLine
 10
12.49638691050199
 20
-13.94126907715302
 11
11.97858886969474
 21
-14.4301291359375
  0
LINE
  5
AD
100
AcDbEntity
  8
0
  6
ByLayer
 62
  256
370
   -1
100
AcDbLine
 10
11.97858886969474
 20
-14.4301291359375
 11
11.47113494676736
 21
-14.93036204704743
  0
LINE
  5
AE
100
AcDbEntity
  8
0
  6
ByLayer
 62
  256
370
   -1
100
AcDbLine
 10
11.47113494676736
 20
-14.93036204704743
 11
10.97711134505657
 21
-15.44297610649567
  0
LINE
  5
AF
100
AcDbEntity
  8
0
  6
ByLayer
 62
  256
370
   -1
100
AcDbLine
 10
10.97711134505657
 20
-15.44297610649567
 11
10.49548876238254
 21
-15.96801673302155
  0
LINE
  5
B0
100
AcDbEntity
  8
0
  6
ByLayer
 62
  256
370
   -1
100
AcDbLine
 10
10.49548876238254
 20
-15.96801673302155
 11
10.02626833421377
 21
-16.50443021187287
  0
LINE
  5
B1
100
AcDbEntity
  8
0
  6
ByLayer
 62
  256
370
   -1
100
AcDbLine
 10
10.02626833421377
 20
-16.50443021187287
 11
9.570478227261578
 21
-17.05116282829743
  0
LINE
  5
B2
100
AcDbEntity
  8
0
  6
ByLayer
 62
  256
370
   -1
100
AcDbLine
 10
9.570478227261578
 20
-17.05116282829743
 11
9.128117873791728
 21
-17.61029476055603
  0
LINE
  5
B3
100
AcDbEntity
  8
0
  6
ByLayer
 62
  256
370
   -1
100
AcDbLine
 10
9.128117873791728
 20
-17.61029476055603
 11
8.700235878948245
 21
-18.17872845062714
  0
LINE
  5
B4
100
AcDbEntity
  8
0
  6
ByLayer
 62
  256
370
   -1
100
AcDbLine
 10
8.700235878948245
 20
-18.17872845062714
 11
8.285803508285555
 21
-18.75853499302369
  0
LINE
  5
B5
100
AcDbEntity
  8
0
  6
ByLayer
 62
  256
370
   -1
100
AcDbLine
 10
8.285803508285555
 20
-18.75853499302369
 11
7.88582962555078
 21
-19.34766146072846
  0
LINE
  5
B6
100
AcDbEntity
  8
0
  6
ByLayer
 62
  256
370
   -1
100
AcDbLine
 10
7.88582962555078
 20
-19.34766146072846
 11
7.499286064032588
 21
-19.94608060249787
  0
LINE
  5
B7
100
AcDbEntity
  8
0
  6
ByLayer
 62
  256
370
   -1
100
AcDbLine
 10
7.499286064032588
 20
-19.94608060249787
 11
7.128249027852092
 21
-20.55481888184052
  0
LINE
  5
B8
100
AcDbEntity
  8
0
  6
ByLayer
 62
  256
370
   -1
100
AcDbLine
 10
7.128249027852092
 20
-20.55481888184052
 11
6.772719084743533
 21
-21.17183245548706
  0
LINE
  5
B9
100
AcDbEntity
  8
0
  6
ByLayer
 62
  256
370
   -1
100
AcDbLine
 10
6.772719084743533
 20
-21.17183245548706
 11
6.431647629562888
 21
-21.79713040718537
  0
LINE
  5
BA
100
AcDbEntity
  8
0
  6
ByLayer
 62
  256
370
   -1
100
AcDbLine
 10
6.431647629562888
 20
-21.79713040718537
 11
6.10608326745418
 21
-22.43067640194397
  0
LINE
  5
BB
100
AcDbEntity
  8
0
  6
ByLayer
 62
  256
370
   -1
100
AcDbLine
 10
6.10608326745418
 20
-22.43067640194397
 11
5.794996696237597
 21
-23.07145306000214
  0
LINE
  5
BC
100
AcDbEntity
  8
0
  6
ByLayer
 62
  256
370
   -1
100
AcDbLine
 10
5.794996696237597
 20
-23.07145306000214
 11
5.500445668671402
 21
-23.72051409611207
  0
LINE
  5
BD
100
AcDbEntity
  8
0
  6
ByLayer
 62
  256
370
   -1
100
AcDbLine
 10
5.500445668671402
 20
-23.72051409611207
 11
5.222410881791387
 21
-24.37577024826508
  0
LINE
  5
BE
100
AcDbEntity
  8
0
  6
ByLayer
 62
  256
370
   -1
100
AcDbLine
 10
5.222410881791387
 20
-24.37577024826508
 11
4.959901923213276
 21
-25.03825706371765
  0
LINE
  5
BF
100
AcDbEntity
  8
0
  6
ByLayer
 62
  256
370
   -1
100
AcDbLine
 10
4.959901923213276
 20
-25.03825706371765
 11
4.713924534145865
 21
-25.70592161545258
  0
LINE
  5
C0
100
AcDbEntity
  8
0
  6
ByLayer
 62
  256
370
   -1
100
AcDbLine
 10
4.713924534145865
 20
-25.70592161545258
 11
4.483448135007294
 21
-26.38082591423493
  0
LINE
  5
C1
100
AcDbEntity
  8
0
  6
ByLayer
 62
  256
370
   -1
100
AcDbLine
 10
4.483448135007294
 20
-26.38082591423493
 11
4.269506995651993
 21
-27.05984515079957
  0
LINE
  5
C2
100
AcDbEntity
  8
0
  6
ByLayer
 62
  256
370
   -1
100
AcDbLine
 10
4.269506995651993
 20
-27.05984515079957
 11
4.073135882701846
 21
-27.74506858715516
  0
LINE
  5
C3
100
AcDbEntity
  8
0
  6
ByLayer
 62
  256
370
   -1
100
AcDbLine
 10
4.073135882701846
 20
-27.74506858715516
 11
3.893301945638034
 21
-28.43340774902802
  0
LINE
  5
C4
100
AcDbEntity
  8
0
  6
ByLayer
 62
  256
370
   -1
100
AcDbLine
 10
3.893301945638034
 20
-28.43340774902802
 11
3.730005326394113
 21
-29.12689739593965
  0
LINE
  5
C5
100
AcDbEntity
  8
0
  6
ByLayer
 62
  256
370
   -1
100
AcDbLine
 10
3.730005326394113
 20
-29.12689739593965
 11
3.583244144350411
 21
-29.82452923187714
  0
LINE
  5
C6
100
AcDbEntity
  8
0
  6
ByLayer
 62
  256
370
   -1
100
AcDbLine
 10
3.583244144350411
 20
-29.82452923187714
 11
3.454052775811526
 21
-30.52423216232758
  0
LINE
  5
C7
100
AcDbEntity
  8
0
  6
ByLayer
 62
  256
370
   -1
100
AcDbLine
 10
3.454052775811526
 20
-30.52423216232758
 11
3.341398689609143
 21
-31.2280772818039
  0
LINE
  5
C8
100
AcDbEntity
  8
0
  6
ByLayer
 62
  256
370
   -1
100
AcDbLine
 10
3.341398689609143
 20
-31.2280772818039
 11
3.246314416911575
 21
-31.93397532829743
  0
LINE
  5
C9
100
AcDbEntity
  8
0
  6
ByLayer
 62
  256
370
   -1
100
AcDbLine
 10
3.246314416911575
 20
-31.93397532829743
 11
3.168798822250338
 21
-32.64192630180817
  0
LINE
  5
CA
100
AcDbEntity
  8
0
  6
ByLayer
 62
  256
370
   -1
100
AcDbLine
 10
3.168798822250338
 20
-32.64192630180817
 11
3.107820722825947
 21
-33.35195745357972
  0
LINE
  5
CB
100
AcDbEntity
  8
0
  6
ByLayer
 62
  256
370
   -1
100
AcDbLine
 10
3.107820722825947
 20
-33.35195745357972
 11
3.064412443559505
 21
-34.06304232010346
  0
LINE
  5
CC
100
AcDbEntity
  8
0
  6
ByLayer
 62
  256
370
   -1
100
AcDbLine
 10
3.064412443559505
 20
-34.06304232010346
 11
3.038574222855042
 21
-34.77409993538361
  0
LINE
  5
CD
100
AcDbEntity
  8
0
  6
ByLayer
 62
  256
370
   -1
100
AcDbLine
 10
3.038574222855042
 20
-34.77409993538361
 11
3.029272473740131
 21
-35.48723772892457
  0
LINE
  5
CE
100
AcDbEntity
  8
0
  6
ByLayer
 62
  256
370
   -1
100
AcDbLine
 10
11.89385453415302
 20
-67.73437459597093
 11
11.92692505371955
 21
-67.98345096239549
  0
LINE
  5
CF
100
AcDbEntity
  8
0
  6
ByLayer
 62
  256
370
   -1
100
AcDbLine
 10
11.92692505371955
 20
-67.98345096239549
 11
11.95483316582826
 21
-68.23253187069399
  0
LINE
  5
D0
100
AcDbEntity
  8
0
  6
ByLayer
 62
  256
370
   -1
100
AcDbLine
 10
11.95483316582826
 20
-68.23253187069399
 11
11.97550266635803
 21
-68.48366570600969
  0
LINE
  5
D1
100
AcDbEntity
  8
0
  6
ByLayer
 62
  256
370
   -1
100
AcDbLine
 10
12.00030583990005
 20
-69.48826917538148
 11
11.99099045646575
 21
-69.73940301069719
  0
LINE
  5
D2
100
AcDbEntity
  8
0
  6
ByLayer
 62
  256
370
   -1
100
AcDbLine
 10
11.99099045646575
 20
-69.73940301069719
 11
11.97550266635803
 21
-69.99055955538255
  0
LINE
  5
D3
100
AcDbEntity
  8
0
  6
ByLayer
 62
  256
370
   -1
100
AcDbLine
 10
11.97550266635803
 20
-69.99055955538255
 11
11.95483316582826
 21
-70.24066692718965
  0
LINE
  5
D4
100
AcDbEntity
  8
0
  6
ByLayer
 62
  256
370
   -1
100
AcDbLine
 10
11.95483316582826
 20
-70.24066692718965
 11
11.92692505371955
 21
-70.49079246649248
  0
LINE
  5
D5
100
AcDbEntity
  8
0
  6
ByLayer
 62
  256
370
   -1
100
AcDbLine
 10
11.92692505371955
 20
-70.49079246649248
 11
11.89385453415302
 21
-70.73987337479097
  0
LINE
  5
D6
100
AcDbEntity
  8
0
  6
ByLayer
 62
  256
370
   -1
100
AcDbLine
 10
11.89385453415302
 20
-70.73987337479097
 11
11.85457300198463
 21
-70.98792327770693
  0
LINE
  5
D7
100
AcDbEntity
  8
0
  6
ByLayer
 62
  256
370
   -1
100
AcDbLine
 10
11.85457300198463
 20
-70.98792327770693
 11
11.80910089564708
 21
-71.23492400774461
  0
LINE
  5
D8
100
AcDbEntity
  8
0
  6
ByLayer
 62
  256
370
   -1
100
AcDbLine
 10
11.80910089564708
 20
-71.23492400774461
 11
11.75741834444192
 21
-71.48091644176942
  0
LINE
  5
D9
100
AcDbEntity
  8
0
  6
ByLayer
 62
  256
370
   -1
100
AcDbLine
 10
11.75741834444192
 20
-71.48091644176942
 11
11.7005728180447
 21
-71.7258642447899
  0
LINE
  5
DA
100
AcDbEntity
  8
0
  6
ByLayer
 62
  256
370
   -1
100
AcDbLine
 10
3.029272473740131
 20
-102.9869875324677
 11
3.038574222855042
 21
-103.699096591563
  0
LINE
  5
DB
100
AcDbEntity
  8
0
  6
ByLayer
 62
  256
370
   -1
100
AcDbLine
 10
3.038574222855042
 20
-103.699096591563
 11
3.064412443559505
 21
-104.4112056506584
  0
LINE
  5
DC
100
AcDbEntity
  8
0
  6
ByLayer
 62
  256
370
   -1
100
AcDbLine
 10
3.064412443559505
 20
-104.4112056506584
 11
3.107820722825947
 21
-105.1222655368755
  0
LINE
  5
DD
100
AcDbEntity
  8
0
  6
ByLayer
 62
  256
370
   -1
100
AcDbLine
 10
3.107820722825947
 20
-105.1222655368755
 11
3.168798822250339
 21
-105.8312679542015
  0
LINE
  5
DE
100
AcDbEntity
  8
0
  6
ByLayer
 62
  256
370
   -1
100
AcDbLine
 10
3.168798822250339
 20
-105.8312679542015
 11
3.246314416911575
 21
-106.5402703715275
  0
LINE
  5
DF
100
AcDbEntity
  8
0
  6
ByLayer
 62
  256
370
   -1
100
AcDbLine
 10
3.246314416911575
 20
-106.5402703715275
 11
3.341398689609143
 21
-107.246168418021
  0
LINE
  5
E0
100
AcDbEntity
  8
0
  6
ByLayer
 62
  256
370
   -1
100
AcDbLine
 10
3.341398689609143
 20
-107.246168418021
 11
3.454052775811525
 21
-107.9489620936821
  0
LINE
  5
E1
100
AcDbEntity
  8
0
  6
ByLayer
 62
  256
370
   -1
100
AcDbLine
 10
3.454052775811525
 20
-107.9489620936821
 11
3.583244144350411
 21
-108.6496960295151
  0
LINE
  5
E2
100
AcDbEntity
  8
0
  6
ByLayer
 62
  256
370
   -1
100
AcDbLine
 10
3.583244144350411
 20
-108.6496960295151
 11
3.730005326394114
 21
-109.3462968600701
  0
LINE
  5
E3
100
AcDbEntity
  8
0
  6
ByLayer
 62
  256
370
   -1
100
AcDbLine
 10
3.730005326394114
 20
-109.3462968600701
 11
3.893301945638033
 21
-110.0397933197926
  0
LINE
  5
E4
100
AcDbEntity
  8
0
  6
ByLayer
 62
  256
370
   -1
100
AcDbLine
 10
3.893301945638033
 20
-110.0397933197926
 11
4.073135882701846
 21
-110.7291566742371
  0
LINE
  5
E5
100
AcDbEntity
  8
0
  6
ByLayer
 62
  256
370
   -1
100
AcDbLine
 10
4.073135882701846
 20
-110.7291566742371
 11
4.269506995651994
 21
-111.413355918021
  0
LINE
  5
E6
100
AcDbEntity
  8
0
  6
ByLayer
 62
  256
370
   -1
100
AcDbLine
 10
4.269506995651994
 20
-111.413355918021
 11
4.483448135007295
 21
-112.093422056527
  0
LINE
  5
E7
100
AcDbEntity
  8
0
  6
ByLayer
 62
  256
370
   -1
100
AcDbLine
 10
4.483448135007295
 20
-112.093422056527
 11
4.713924534145865
 21
-112.7672771824311
  0
LINE
  5
E8
100
AcDbEntity
  8
0
  6
ByLayer
 62
  256
370
   -1
100
AcDbLine
 10
4.713924534145865
 20
-112.7672771824311
 11
4.959901923213276
 21
-113.4359704686115
  0
LINE
  5
E9
100
AcDbEntity
  8
0
  6
ByLayer
 62
  256
370
   -1
100
AcDbLine
 10
4.959901923213276
 20
-113.4359704686115
 11
5.222410881791387
 21
-114.0984538776587
  0
LINE
  5
EA
100
AcDbEntity
  8
0
  6
ByLayer
 62
  256
370
   -1
100
AcDbLine
 10
5.222410881791387
 20
-114.0984538776587
 11
5.500445668671402
 21
-114.7537157071541
  0
LINE
  5
EB
100
AcDbEntity
  8
0
  6
ByLayer
 62
  256
370
   -1
100
AcDbLine
 10
5.500445668671402
 20
-114.7537157071541
 11
5.794996696237597
 21
-115.4017400605391
  0
LINE
  5
EC
100
AcDbEntity
  8
0
  6
ByLayer
 62
  256
370
   -1
100
AcDbLine
 10
5.794996696237597
 20
-115.4017400605391
 11
6.10608326745418
 21
-116.0435534013222
  0
LINE
  5
ED
100
AcDbEntity
  8
0
  6
ByLayer
 62
  256
370
   -1
100
AcDbLine
 10
6.10608326745418
 20
-116.0435534013222
 11
6.431647629562888
 21
-116.677118699045
  0
LINE
  5
EE
100
AcDbEntity
  8
0
  6
ByLayer
 62
  256
370
   -1
100
AcDbLine
 10
6.431647629562888
 20
-116.677118699045
 11
6.772719084743533
 21
-117.3023962123106
  0
LINE
  5
EF
100
AcDbEntity
  8
0
  6
ByLayer
 62
  256
370
   -1
100
AcDbLine
 10
6.772719084743533
 20
-117.3023962123106
 11
7.128249027852092
 21
-117.9194256825159
  0
LINE
  5
F0
100
AcDbEntity
  8
0
  6
ByLayer
 62
  256
370
   -1
100
AcDbLine
 10
7.128249027852092
 20
-117.9194256825159
 11
7.499286064032588
 21
-118.5271397692869
  0
LINE
  5
F1
100
AcDbEntity
  8
0
  6
ByLayer
 62
  256
370
   -1
100
AcDbLine
 10
7.499286064032588
 20
-118.5271397692869
 11
7.88582962555078
 21
-119.1265865100334
  0
LINE
  5
F2
100
AcDbEntity
  8
0
  6
ByLayer
 62
  256
370
   -1
100
AcDbLine
 10
7.88582962555078
 20
-119.1265865100334
 11
8.285803508285555
 21
-119.7156891329001
  0
LINE
  5
F3
100
AcDbEntity
  8
0
  6
ByLayer
 62
  256
370
   -1
100
AcDbLine
 10
8.285803508285555
 20
-119.7156891329001
 11
8.700235878948245
 21
-120.2944658053826
  0
LINE
  5
F4
100
AcDbEntity
  8
0
  6
ByLayer
 62
  256
370
   -1
100
AcDbLine
 10
8.700235878948245
 20
-120.2944658053826
 11
9.128117873791728
 21
-120.863946397395
  0
LINE
  5
F5
100
AcDbEntity
  8
0
  6
ByLayer
 62
  256
370
   -1
100
AcDbLine
 10
9.128117873791728
 20
-120.863946397395
 11
9.570478227261576
 21
-121.4220541370819
  0
LINE
  5
F6
100
AcDbEntity
  8
0
  6
ByLayer
 62
  256
370
   -1
100
AcDbLine
 10
9.570478227261576
 20
-121.4220541370819
 11
10.02626833421377
 21
-121.969817758889
  0
LINE
  5
F7
100
AcDbEntity
  8
0
  6
ByLayer
 62
  256
370
   -1
100
AcDbLine
 10
10.02626833421377
 20
-121.969817758889
 11
10.49548876238254
 21
-122.5062085283707
  0
LINE
  5
F8
100
AcDbEntity
  8
0
  6
ByLayer
 62
  256
370
   -1
100
AcDbLine
 10
10.49548876238254
 20
-122.5062085283707
 11
10.97711134505657
 21
-123.0302175817798
  0
LINE
  5
F9
100
AcDbEntity
  8
0
  6
ByLayer
 62
  256
370
   -1
100
AcDbLine
 10
10.97711134505657
 20
-123.0302175817798
 11
11.47113494676736
 21
-123.5438813818405
  0
LINE
  5
FA
100
AcDbEntity
  8
0
  6
ByLayer
 62
  256
370
   -1
100
AcDbLine
 10
11.47113494676736
 20
-123.5438813818405
 11
11.97858886969474
 21
-124.0441154284189
  0
LINE
  5
FB
100
AcDbEntity
  8
0
  6
ByLayer
 62
  256
370
   -1
100
AcDbLine
 10
11.97858886969474
 20
-124.0441154284189
 11
12.49638691050199
 21
-124.5319285852621
  0
LINE
  5
FC
100
AcDbEntity
  8
0
  6
ByLayer
 62
  256
370
   -1
100
AcDbLine
 10
12.49638691050199
 20
-124.5319285852621
 11
13.02763400775579
 21
-125.0073594582985
  0
LINE
  5
FD
100
AcDbEntity
  8
0
  6
ByLayer
 62
  256
370
   -1
100
AcDbLine
 10
13.02763400775579
 20
-125.0073594582985
 11
13.56920705539373
 21
-125.4693412748883
  0
LINE
  5
FE
100
AcDbEntity
  8
0
  6
ByLayer
 62
  256
370
   -1
100
AcDbLine
 10
13.56920705539373
 20
-125.4693412748883
 11
14.12213251692441
 21
-125.9189215047072
  0
LINE
  5
FF
100
AcDbEntity
  8
0
  6
ByLayer
 62
  256
370
   -1
100
AcDbLine
 10
14.12213251692441
 20
-125.9189215047072
 11
14.68645126921323
 21
-126.3540421111296
  0
LINE
  5
100
100
AcDbEntity
  8
0
  6
ByLayer
 62
  256
370
   -1
100
AcDbLine
 10
14.68645126921323
 20
-126.3540421111296
 11
15.26004679900793
 21
-126.7757329640697
  0
LINE
  5
101
100
AcDbEntity
  8
0
  6
ByLayer
 62
  256
370
   -1
100
AcDbLine
 10
15.26004679900793
 20
-126.7757329640697
 11
15.84503334862379
 21
-127.1829267231534
  0
LINE
  5
102
100
AcDbEntity
  8
0
  6
ByLayer
 62
  256
370
   -1
100
AcDbLine
 10
15.84503334862379
 20
-127.1829267231534
 11
16.43929894668249
 21
-127.5756807295392
  0
LINE
  5
103
100
AcDbEntity
  8
0
  6
ByLayer
 62
  256
370
   -1
100
AcDbLine
 10
16.43929894668249
 20
-127.5756807295392
 11
17.04185005826143
 21
-127.9549851117442
  0
LINE
  5
104
100
AcDbEntity
  8
0
  6
ByLayer
 62
  256
370
   -1
100
AcDbLine
 10
17.04185005826143
 20
-127.9549851117442
 11
17.65474528772024
 21
-128.3177545180331
  0
LINE
  5
105
100
AcDbEntity
  8
0
  6
ByLayer
 62
  256
370
   -1
100
AcDbLine
 10
17.65474528772024
 20
-128.3177545180331
 11
18.27588969570783
 21
-128.6670743001412
  0
LINE
  5
106
100
AcDbEntity
  8
0
  6
ByLayer
 62
  256
370
   -1
100
AcDbLine
 10
18.27588969570783
 20
-128.6670743001412
 11
18.90530258518842
 21
-128.9998778415631
  0
LINE
  5
107
100
AcDbEntity
  8
0
  6
ByLayer
 62
  256
370
   -1
100
AcDbLine
 10
18.90530258518842
 20
-128.9998778415631
 11
19.54300098818926
 21
-129.3182033082257
  0
LINE
  5
108
100
AcDbEntity
  8
0
  6
ByLayer
 62
  256
370
   -1
100
AcDbLine
 10
19.54300098818926
 20
-129.3182033082257
 11
20.1879198352733
 21
-129.6199932312379
  0
LINE
  5
109
100
AcDbEntity
  8
0
  6
ByLayer
 62
  256
370
   -1
100
AcDbLine
 10
20.1879198352733
 20
-129.6199932312379
 11
20.84007729393629
 21
-129.9073245243887
  0
LINE
  5
10A
100
AcDbEntity
  8
0
  6
ByLayer
 62
  256
370
   -1
100
AcDbLine
 10
20.84007729393629
 20
-129.9073245243887
 11
21.49842646223691
 21
-130.1781011128585
  0
LINE
  5
10B
100
AcDbEntity
  8
0
  6
ByLayer
 62
  256
370
   -1
100
AcDbLine
 10
21.49842646223691
 20
-130.1781011128585
 11
22.164013106648
 21
-130.4323482608209
  0
LINE
  5
10C
100
AcDbEntity
  8
0
  6
ByLayer
 62
  256
370
   -1
100
AcDbLine
 10
22.164013106648
 20
-130.4323482608209
 11
22.8358130345979
 21
-130.670059865133
  0
LINE
  5
10D
100
AcDbEntity
  8
0
  6
ByLayer
 62
  256
370
   -1
100
AcDbLine
 10
22.8358130345979
 20
-130.670059865133
 11
23.51277253133443
 21
-130.8922684924464
  0
LINE
  5
10E
100
AcDbEntity
  8
0
  6
ByLayer
 62
  256
370
   -1
100
AcDbLine
 10
23.51277253133443
 20
-130.8922684924464
 11
24.19489613873151
 21
-131.0969074481885
  0
LINE
  5
10F
100
AcDbEntity
  8
0
  6
ByLayer
 62
  256
370
   -1
100
AcDbLine
 10
24.19489613873151
 20
-131.0969074481885
 11
24.8811732898393
 21
-131.2860434978987
  0
LINE
  5
110
100
AcDbEntity
  8
0
  6
ByLayer
 62
  256
370
   -1
100
AcDbLine
 10
24.8811732898393
 20
-131.2860434978987
 11
25.57259184223799
 21
-131.4576096631373
  0
LINE
  5
111
100
AcDbEntity
  8
0
  6
ByLayer
 62
  256
370
   -1
100
AcDbLine
 10
25.57259184223799
 20
-131.4576096631373
 11
26.26816620928434
 21
-131.6126385815228
  0
LINE
  5
112
100
AcDbEntity
  8
0
  6
ByLayer
 62
  256
370
   -1
100
AcDbLine
 10
26.26816620928434
 20
-131.6126385815228
 11
26.96682450873044
 21
-131.7500976509201
  0
LINE
  5
113
100
AcDbEntity
  8
0
  6
ByLayer
 62
  256
370
   -1
100
AcDbLine
 10
26.96682450873044
 20
-131.7500976509201
 11
27.66858717900899
 21
-131.871021354084
  0
LINE
  5
114
100
AcDbEntity
  8
0
  6
ByLayer
 62
  256
370
   -1
100
AcDbLine
 10
27.66858717900899
 20
-131.871021354084
 11
28.37345649105696
 21
-131.9754077216863
  0
LINE
  5
115
100
AcDbEntity
  8
0
  6
ByLayer
 62
  256
370
   -1
100
AcDbLine
 10
28.37345649105696
 20
-131.9754077216863
 11
29.08040143949179
 21
-132.0611898639957
  0
LINE
  5
116
100
AcDbEntity
  8
0
  6
ByLayer
 62
  256
370
   -1
100
AcDbLine
 10
29.08040143949179
 20
-132.0611898639957
 11
29.78940612775472
 21
-132.1304362408836
  0
LINE
  5
117
100
AcDbEntity
  8
0
  6
ByLayer
 62
  256
370
   -1
100
AcDbLine
 10
29.78940612775472
 20
-132.1304362408836
 11
30.50046601397184
 21
-132.1831462580032
  0
LINE
  5
118
100
AcDbEntity
  8
0
  6
ByLayer
 62
  256
370
   -1
100
AcDbLine
 10
30.50046601397184
 20
-132.1831462580032
 11
31.21152590018896
 21
-132.2172526153464
  0
LINE
  5
119
100
AcDbEntity
  8
0
  6
ByLayer
 62
  256
370
   -1
100
AcDbLine
 10
31.21152590018896
 20
-132.2172526153464
 11
31.92363495928434
 21
-132.2348226965014
  0
LINE
  5
11A
100
AcDbEntity
  8
0
  6
ByLayer
 62
  256
370
   -1
100
AcDbLine
 10
31.92363495928434
 20
-132.2348226965014
 11
32.63574174744276
 21
-132.2348226965014
  0
LINE
  5
11B
100
AcDbEntity
  8
0
  6
ByLayer
 62
  256
370
   -1
100
AcDbLine
 10
32.63574174744276
 20
-132.2348226965014
 11
33.34783036810545
 21
-132.2172526153464
  0
LINE
  5
11C
100
AcDbEntity
  8
0
  6
ByLayer
 62
  256
370
   -1
100
AcDbLine
 10
33.34783036810545
 20
-132.2172526153464
 11
34.05993942720083
 21
-132.1831462580032
  0
LINE
  5
11D
100
AcDbEntity
  8
0
  6
ByLayer
 62
  256
370
   -1
100
AcDbLine
 10
34.05993942720083
 20
-132.1831462580032
 11
34.76997057897238
 21
-132.1304362408836
  0
LINE
  5
11E
100
AcDbEntity
  8
0
  6
ByLayer
 62
  256
370
   -1
100
AcDbLine
 10
34.76997057897238
 20
-132.1304362408836
 11
35.47897299629835
 21
-132.0611898639957
  0
LINE
  5
11F
100
AcDbEntity
  8
0
  6
ByLayer
 62
  256
370
   -1
100
AcDbLine
 10
35.47897299629835
 20
-132.0611898639957
 11
36.18589977723745
 21
-131.9754077216863
  0
LINE
  5
120
100
AcDbEntity
  8
0
  6
ByLayer
 62
  256
370
   -1
100
AcDbLine
 10
36.18589977723745
 20
-131.9754077216863
 11
36.89076908928541
 21
-131.871021354084
  0
LINE
  5
121
100
AcDbEntity
  8
0
  6
ByLayer
 62
  256
370
   -1
100
AcDbLine
 10
36.89076908928541
 20
-131.871021354084
 11
37.59253175956396
 21
-131.7500976509201
  0
LINE
  5
122
100
AcDbEntity
  8
0
  6
ByLayer
 62
  256
370
   -1
100
AcDbLine
 10
37.59253175956396
 20
-131.7500976509201
 11
38.29121049744276
 21
-131.6126385815228
  0
LINE
  5
123
100
AcDbEntity
  8
0
  6
ByLayer
 62
  256
370
   -1
100
AcDbLine
 10
38.29121049744276
 20
-131.6126385815228
 11
38.98676442605642
 21
-131.4576096631373
  0
LINE
  5
124
100
AcDbEntity
  8
0
  6
ByLayer
 62
  256
370
   -1
100
AcDbLine
 10
38.98676442605642
 20
-131.4576096631373
 11
39.6782034168878
 21
-131.2860434978987
  0
LINE
  5
125
100
AcDbEntity
  8
0
  6
ByLayer
 62
  256
370
   -1
100
AcDbLine
 10
39.6782034168878
 20
-131.2860434978987
 11
40.36548886400847
 21
-131.0969074481885
  0
LINE
  5
126
100
AcDbEntity
  8
0
  6
ByLayer
 62
  256
370
   -1
100
AcDbLine
 10
40.36548886400847
 20
-131.0969074481885
 11
41.04763063890127
 21
-130.8922684924464
  0
LINE
  5
127
100
AcDbEntity
  8
0
  6
ByLayer
 62
  256
370
   -1
100
AcDbLine
 10
41.04763063890127
 20
-130.8922684924464
 11
41.7235432336965
 21
-130.670059865133
  0
LINE
  5
128
100
AcDbEntity
  8
0
  6
ByLayer
 62
  256
370
   -1
100
AcDbLine
 10
41.7235432336965
 20
-130.670059865133
 11
42.39534089070944
 21
-130.4323482608209
  0
LINE
  5
129
100
AcDbEntity
  8
0
  6
ByLayer
 62
  256
370
   -1
100
AcDbLine
 10
42.39534089070944
 20
-130.4323482608209
 11
43.0609298060575
 21
-130.1781011128585
  0
LINE
  5
12A
100
AcDbEntity
  8
0
  6
ByLayer
 62
  256
370
   -1
100
AcDbLine
 10
43.0609298060575
 20
-130.1781011128585
 11
43.71929714185384
 21
-129.9073245243887
  0
LINE
  5
12B
100
AcDbEntity
  8
0
  6
ByLayer
 62
  256
370
   -1
100
AcDbLine
 10
43.71929714185384
 20
-129.9073245243887
 11
44.37145573598532
 21
-129.6199932312379
  0
LINE
  5
12C
100
AcDbEntity
  8
0
  6
ByLayer
 62
  256
370
   -1
100
AcDbLine
 10
44.37145573598532
 20
-129.6199932312379
 11
45.01637458306937
 21
-129.3182033082257
  0
LINE
  5
12D
100
AcDbEntity
  8
0
  6
ByLayer
 62
  256
370
   -1
100
AcDbLine
 10
45.01637458306937
 20
-129.3182033082257
 11
45.65405368310599
 21
-128.9998778415631
  0
LINE
  5
12E
100
AcDbEntity
  8
0
  6
ByLayer
 62
  256
370
   -1
100
AcDbLine
 10
45.65405368310599
 20
-128.9998778415631
 11
46.2834847400823
 21
-128.6670743001412
  0
LINE
  5
12F
100
AcDbEntity
  8
0
  6
ByLayer
 62
  256
370
   -1
100
AcDbLine
 10
46.2834847400823
 20
-128.6670743001412
 11
46.90463141900687
 21
-128.3177545180331
  0
LINE
  5
130
100
AcDbEntity
  8
0
  6
ByLayer
 62
  256
370
   -1
100
AcDbLine
 10
46.90463141900687
 20
-128.3177545180331
 11
47.51750734550146
 21
-127.9549851117442
  0
LINE
  5
131
100
AcDbEntity
  8
0
  6
ByLayer
 62
  256
370
   -1
100
AcDbLine
 10
47.51750734550146
 20
-127.9549851117442
 11
48.1210860560575
 21
-127.5756807295392
  0
LINE
  5
132
100
AcDbEntity
  8
0
  6
ByLayer
 62
  256
370
   -1
100
AcDbLine
 10
48.1210860560575
 20
-127.5756807295392
 11
48.71434108716635
 21
-127.1829267231534
  0
LINE
  5
133
100
AcDbEntity
  8
0
  6
ByLayer
 62
  256
370
   -1
100
AcDbLine
 10
48.71434108716635
 20
-127.1829267231534
 11
49.29931174022344
 21
-126.7757329640697
  0
LINE
  5
134
100
AcDbEntity
  8
0
  6
ByLayer
 62
  256
370
   -1
100
AcDbLine
 10
49.29931174022344
 20
-126.7757329640697
 11
49.8729231665769
 21
-126.3540421111296
  0
LINE
  5
135
100
AcDbEntity
  8
0
  6
ByLayer
 62
  256
370
   -1
100
AcDbLine
 10
49.8729231665769
 20
-126.3540421111296
 11
50.43722375137
 21
-125.9189215047072
  0
LINE
  5
136
100
AcDbEntity
  8
0
  6
ByLayer
 62
  256
370
   -1
100
AcDbLine
 10
50.43722375137
 20
-125.9189215047072
 11
50.99016965133337
 21
-125.4693412748883
  0
LINE
  5
137
100
AcDbEntity
  8
0
  6
ByLayer
 62
  256
370
   -1
100
AcDbLine
 10
50.99016965133337
 20
-125.4693412748883
 11
51.53174269897131
 21
-125.0073594582985
  0
LINE
  5
138
100
AcDbEntity
  8
0
  6
ByLayer
 62
  256
370
   -1
100
AcDbLine
 10
51.53174269897131
 20
-125.0073594582985
 11
52.06296935779242
 21
-124.5319285852621
  0
LINE
  5
139
100
AcDbEntity
  8
0
  6
ByLayer
 62
  256
370
   -1
100
AcDbLine
 10
52.06296935779242
 20
-124.5319285852621
 11
52.58179670077948
 21
-124.044115428419
  0
LINE
  5
13A
100
AcDbEntity
  8
0
  6
ByLayer
 62
  256
370
   -1
100
AcDbLine
 10
52.58179670077948
 20
-124.044115428419
 11
53.08824289542822
 21
-123.5438813818405
  0
LINE
  5
13B
100
AcDbEntity
  8
0
  6
ByLayer
 62
  256
370
   -1
100
AcDbLine
 10
53.08824289542822
 20
-123.5438813818405
 11
53.58226252299933
 21
-123.0302175817798
  0
LINE
  5
13C
100
AcDbEntity
  8
0
  6
ByLayer
 62
  256
370
   -1
100
AcDbLine
 10
53.58226252299933
 20
-123.0302175817798
 11
54.06388737661032
 21
-122.5062085283707
  0
LINE
  5
13D
100
AcDbEntity
  8
0
  6
ByLayer
 62
  256
370
   -1
100
AcDbLine
 10
54.06388737661032
 20
-122.5062085283707
 11
54.53310837251334
 21
-121.969817758889
  0
LINE
  5
13E
100
AcDbEntity
  8
0
  6
ByLayer
 62
  256
370
   -1
100
AcDbLine
 10
54.53310837251334
 20
-121.969817758889
 11
54.98889904719977
 21
-121.4220541370819
  0
LINE
  5
13F
100
AcDbEntity
  8
0
  6
ByLayer
 62
  256
370
   -1
100
AcDbLine
 10
54.98889904719977
 20
-121.4220541370819
 11
55.43123669129996
 21
-120.863946397395
  0
LINE
  5
140
100
AcDbEntity
  8
0
  6
ByLayer
 62
  256
370
   -1
100
AcDbLine
 10
55.43123669129996
 20
-120.863946397395
 11
55.85912209254889
 21
-120.2944658053826
  0
LINE
  5
141
100
AcDbEntity
  8
0
  6
ByLayer
 62
  256
370
   -1
100
AcDbLine
 10
55.85912209254889
 20
-120.2944658053826
 11
56.27357263070731
 21
-119.7156891329001
  0
LINE
  5
142
100
AcDbEntity
  8
0
  6
ByLayer
 62
  256
370
   -1
100
AcDbLine
 10
56.27357263070731
 20
-119.7156891329001
 11
56.67457468015341
 21
-119.1265865100334
  0
LINE
  5
143
100
AcDbEntity
  8
0
  6
ByLayer
 62
  256
370
   -1
100
AcDbLine
 10
56.67457468015341
 20
-119.1265865100334
 11
57.06008893949178
 21
-118.5271397692869
  0
LINE
  5
144
100
AcDbEntity
  8
0
  6
ByLayer
 62
  256
370
   -1
100
AcDbLine
 10
57.06008893949178
 20
-118.5271397692869
 11
57.43112824660925
 21
-117.9194256825159
  0
LINE
  5
145
100
AcDbEntity
  8
0
  6
ByLayer
 62
  256
370
   -1
100
AcDbLine
 10
57.43112824660925
 20
-117.9194256825159
 11
57.78768351775794
 21
-117.3023962123106
  0
LINE
  5
146
100
AcDbEntity
  8
0
  6
ByLayer
 62
  256
370
   -1
100
AcDbLine
 10
57.78768351775794
 20
-117.3023962123106
 11
58.12771090966849
 21
-116.677118699045
  0
LINE
  5
147
100
AcDbEntity
  8
0
  6
ByLayer
 62
  256
370
   -1
100
AcDbLine
 10
58.12771090966849
 20
-116.677118699045
 11
58.45432160598425
 21
-116.0435534013222
  0
LINE
  5
148
100
AcDbEntity
  8
0
  6
ByLayer
 62
  256
370
   -1
100
AcDbLine
 10
58.45432160598425
 20
-116.0435534013222
 11
58.7643771718183
 21
-115.4017400605391
  0
LINE
  5
149
100
AcDbEntity
  8
0
  6
ByLayer
 62
  256
370
   -1
100
AcDbLine
 10
58.7643771718183
 20
-115.4017400605391
 11
59.05893132192282
 21
-114.7537157071541
  0
LINE
  5
14A
100
AcDbEntity
  8
0
  6
ByLayer
 62
  256
370
   -1
100
AcDbLine
 10
59.05893132192282
 20
-114.7537157071541
 11
59.33694396716741
 21
-114.0984538776587
  0
LINE
  5
14B
100
AcDbEntity
  8
0
  6
ByLayer
 62
  256
370
   -1
100
AcDbLine
 10
59.33694396716741
 20
-114.0984538776587
 11
59.5994551966825
 21
-113.4359704686115
  0
LINE
  5
14C
100
AcDbEntity
  8
0
  6
ByLayer
 62
  256
370
   -1
100
AcDbLine
 10
59.5994551966825
 20
-113.4359704686115
 11
59.84647409421591
 21
-112.7672771824311
  0
LINE
  5
14D
100
AcDbEntity
  8
0
  6
ByLayer
 62
  256
370
   -1
100
AcDbLine
 10
59.84647409421591
 20
-112.7672771824311
 11
60.07591593963294
 21
-112.093422056527
  0
LINE
  5
14E
100
AcDbEntity
  8
0
  6
ByLayer
 62
  256
370
   -1
100
AcDbLine
 10
60.07591593963294
 20
-112.093422056527
 11
60.28986545306829
 21
-111.413355918021
  0
LINE
  5
14F
100
AcDbEntity
  8
0
  6
ByLayer
 62
  256
370
   -1
100
AcDbLine
 10
60.28986545306829
 20
-111.413355918021
 11
60.48623337251334
 21
-110.7291566742371
  0
LINE
  5
150
100
AcDbEntity
  8
0
  6
ByLayer
 62
  256
370
   -1
100
AcDbLine
 10
60.48623337251334
 20
-110.7291566742371
 11
60.66709079248099
 21
-110.0397933197926
  0
LINE
  5
151
100
AcDbEntity
  8
0
  6
ByLayer
 62
  256
370
   -1
100
AcDbLine
 10
60.66709079248099
 20
-110.0397933197926
 11
60.83038932782798
 21
-109.3462968600701
  0
LINE
  5
152
100
AcDbEntity
  8
0
  6
ByLayer
 62
  256
370
   -1
100
AcDbLine
 10
60.83038932782798
 20
-109.3462968600701
 11
60.97611989480642
 21
-108.6496960295151
  0
LINE
  5
153
100
AcDbEntity
  8
0
  6
ByLayer
 62
  256
370
   -1
100
AcDbLine
 10
60.97611989480642
 20
-108.6496960295151
 11
61.10531804067282
 21
-107.9489620936821
  0
LINE
  5
154
100
AcDbEntity
  8
0
  6
ByLayer
 62
  256
370
   -1
100
AcDbLine
 10
61.10531804067282
 20
-107.9489620936821
 11
61.2179610560575
 21
-107.246168418021
  0
LINE
  5
155
100
AcDbEntity
  8
0
  6
ByLayer
 62
  256
370
   -1
100
AcDbLine
 10
61.2179610560575
 20
-107.246168418021
 11
61.3130588124433
 21
-106.5402703715275
  0
LINE
  5
156
100
AcDbEntity
  8
0
  6
ByLayer
 62
  256
370
   -1
100
AcDbLine
 10
61.3130588124433
 20
-106.5402703715275
 11
61.39160143834738
 21
-105.8312679542015
  0
LINE
  5
157
100
AcDbEntity
  8
0
  6
ByLayer
 62
  256
370
   -1
100
AcDbLine
 10
61.39160143834738
 20
-105.8312679542015
 11
61.45155417424826
 21
-105.1222655368756
  0
LINE
  5
158
100
AcDbEntity
  8
0
  6
ByLayer
 62
  256
370
   -1
100
AcDbLine
 10
61.45155417424826
 20
-105.1222655368756
 11
61.49494723779349
 21
-104.4112056506584
  0
LINE
  5
159
100
AcDbEntity
  8
0
  6
ByLayer
 62
  256
370
   -1
100
AcDbLine
 10
61.49494723779349
 20
-104.4112056506584
 11
61.52079958421378
 21
-103.699096591563
  0
LINE
  5
15A
100
AcDbEntity
  8
0
  6
ByLayer
 62
  256
370
   -1
100
AcDbLine
 10
61.52079958421378
 20
-103.699096591563
 11
61.53009680015234
 21
-102.9869875324677
  0
LINE
  5
15B
100
AcDbEntity
  8
0
  6
ByLayer
 62
  256
370
   -1
100
AcDbLine
 10
52.85878288251547
 20
-71.7258642447899
 11
52.801936788384
 21
-71.48091644176942
  0
LINE
  5
15C
100
AcDbEntity
  8
0
  6
ByLayer
 62
  256
370
   -1
100
AcDbLine
 10
52.801936788384
 20
-71.48091644176942
 11
52.75027297240882
 21
-71.23492400774461
  0
LINE
  5
15D
100
AcDbEntity
  8
0
  6
ByLayer
 62
  256
370
   -1
100
AcDbLine
 10
52.75027297240882
 20
-71.23492400774461
 11
52.70480427247672
 21
-70.98792327770693
  0
LINE
  5
15E
100
AcDbEntity
  8
0
  6
ByLayer
 62
  256
370
   -1
100
AcDbLine
 10
52.70480427247672
 20
-70.98792327770693
 11
52.66552160483984
 21
-70.73987337479096
  0
LINE
  5
15F
100
AcDbEntity
  8
0
  6
ByLayer
 62
  256
370
   -1
100
AcDbLine
 10
52.66552160483984
 20
-70.73987337479096
 11
52.63245222074179
 21
-70.49079246649248
  0
LINE
  5
160
100
AcDbEntity
  8
0
  6
ByLayer
 62
  256
370
   -1
100
AcDbLine
 10
52.63245222074179
 20
-70.49079246649248
 11
52.60454240543035
 21
-70.24066692718965
  0
LINE
  5
161
100
AcDbEntity
  8
0
  6
ByLayer
 62
  256
370
   -1
100
AcDbLine
 10
52.60454240543035
 20
-70.24066692718965
 11
52.58387233716634
 21
-69.99055955538255
  0
LINE
  5
162
100
AcDbEntity
  8
0
  6
ByLayer
 62
  256
370
   -1
100
AcDbLine
 10
52.58387233716634
 20
-69.99055955538255
 11
52.5683663795629
 21
-69.73940301069719
  0
LINE
  5
163
100
AcDbEntity
  8
0
  6
ByLayer
 62
  256
370
   -1
100
AcDbLine
 10
52.5683663795629
 20
-69.73940301069719
 11
52.55906916362433
 21
-69.48826917538148
  0
LINE
  5
164
100
AcDbEntity
  8
0
  6
ByLayer
 62
  256
370
   -1
100
AcDbLine
 10
52.55906916362433
 20
-69.48826917538148
 11
52.55596706372885
 21
-69.23711263069612
  0
LINE
  5
165
100
AcDbEntity
  8
0
  6
ByLayer
 62
  256
370
   -1
100
AcDbLine
 10
52.55596706372885
 20
-69.23711263069612
 11
52.55906916362433
 21
-68.98597879538042
  0
LINE
  5
166
100
AcDbEntity
  8
0
  6
ByLayer
 62
  256
370
   -1
100
AcDbLine
 10
52.55906916362433
 20
-68.98597879538042
 11
52.5683663795629
 21
-68.73482225069505
  0
LINE
  5
167
100
AcDbEntity
  8
0
  6
ByLayer
 62
  256
370
   -1
100
AcDbLine
 10
52.5683663795629
 20
-68.73482225069505
 11
52.58387233716635
 21
-68.48366570600969
  0
LINE
  5
168
100
AcDbEntity
  8
0
  6
ByLayer
 62
  256
370
   -1
100
AcDbLine
 10
52.58387233716635
 20
-68.48366570600969
 11
52.60454240543037
 21
-68.23253187069399
  0
LINE
  5
169
100
AcDbEntity
  8
0
  6
ByLayer
 62
  256
370
   -1
100
AcDbLine
 10
52.60454240543037
 20
-68.23253187069399
 11
52.63245222074179
 21
-67.98345096239549
  0
LINE
  5
16A
100
AcDbEntity
  8
0
  6
ByLayer
 62
  256
370
   -1
100
AcDbLine
 10
52.63245222074179
 20
-67.98345096239549
 11
52.66552160483984
 21
-67.73437459597093
  0
LINE
  5
16B
100
AcDbEntity
  8
0
  6
ByLayer
 62
  256
370
   -1
100
AcDbLine
 10
52.66552160483984
 20
-67.73437459597093
 11
52.70480427247671
 21
-67.48529368767244
  0
LINE
  5
16C
100
AcDbEntity
  8
0
  6
ByLayer
 62
  256
370
   -1
100
AcDbLine
 10
52.70480427247671
 20
-67.48529368767244
 11
52.75027297240881
 21
-67.23827479013903
  0
LINE
  5
16D
100
AcDbEntity
  8
0
  6
ByLayer
 62
  256
370
   -1
100
AcDbLine
 10
52.75027297240881
 20
-67.23827479013903
 11
52.801936788384
 21
-66.99230052360994
  0
LINE
  5
16E
100
AcDbEntity
  8
0
  6
ByLayer
 62
  256
370
   -1
100
AcDbLine
 10
52.801936788384
 20
-66.99230052360994
 11
52.85878288251547
 21
-66.74735272058946
  0
LINE
  5
16F
100
AcDbEntity
  8
0
  6
ByLayer
 62
  256
370
   -1
100
AcDbLine
 10
61.53009680015234
 20
-102.9869875324677
 11
61.51253337365774
 21
-101.9534682227085
  0
LINE
  5
170
100
AcDbEntity
  8
0
  6
ByLayer
 62
  256
370
   -1
100
AcDbLine
 10
61.51253337365774
 20
-101.9534682227085
 11
61.46290885907797
 21
-100.9033937824677
  0
LINE
  5
171
100
AcDbEntity
  8
0
  6
ByLayer
 62
  256
370
   -1
100
AcDbLine
 10
61.46290885907797
 20
-100.9033937824677
 11
61.37920212251334
 21
-99.83472718128665
  0
LINE
  5
172
100
AcDbEntity
  8
0
  6
ByLayer
 62
  256
370
   -1
100
AcDbLine
 10
61.37920212251334
 20
-99.83472718128665
 11
61.26345246535926
 21
-98.75160152444344
  0
LINE
  5
173
100
AcDbEntity
  8
0
  6
ByLayer
 62
  256
370
   -1
100
AcDbLine
 10
61.26345246535926
 20
-98.75160152444344
 11
61.11669089299826
 21
-97.65294947156411
  0
LINE
  5
174
100
AcDbEntity
  8
0
  6
ByLayer
 62
  256
370
   -1
100
AcDbLine
 10
61.11669089299826
 20
-97.65294947156411
 11
60.93891740543036
 21
-96.54086936840515
  0
LINE
  5
175
100
AcDbEntity
  8
0
  6
ByLayer
 62
  256
370
   -1
100
AcDbLine
 10
60.93891740543036
 20
-96.54086936840515
 11
60.73220763904242
 21
-95.41846104392512
  0
LINE
  5
176
100
AcDbEntity
  8
0
  6
ByLayer
 62
  256
370
   -1
100
AcDbLine
 10
60.73220763904242
 20
-95.41846104392512
 11
60.49863268834739
 21
-94.28778650888901
  0
LINE
  5
177
100
AcDbEntity
  8
0
  6
ByLayer
 62
  256
370
   -1
100
AcDbLine
 10
60.49863268834739
 20
-94.28778650888901
 11
60.23920993310598
 21
-93.15193196663364
  0
LINE
  5
178
100
AcDbEntity
  8
0
  6
ByLayer
 62
  256
370
   -1
100
AcDbLine
 10
60.23920993310598
 20
-93.15193196663364
 11
59.95603317720083
 21
-92.01298895010453
  0
LINE
  5
179
100
AcDbEntity
  8
0
  6
ByLayer
 62
  256
370
   -1
100
AcDbLine
 10
59.95603317720083
 20
-92.01298895010453
 11
59.65113718015342
 21
-90.87404593357546
  0
LINE
  5
17A
100
AcDbEntity
  8
0
  6
ByLayer
 62
  256
370
   -1
100
AcDbLine
 10
59.65113718015342
 20
-90.87404593357546
 11
59.32765129310278
 21
-89.73921785482865
  0
LINE
  5
17B
100
AcDbEntity
  8
0
  6
ByLayer
 62
  256
370
   -1
100
AcDbLine
 10
59.32765129310278
 20
-89.73921785482865
 11
58.9865792701879
 21
-88.61164769062501
  0
LINE
  5
17C
100
AcDbEntity
  8
0
  6
ByLayer
 62
  256
370
   -1
100
AcDbLine
 10
58.9865792701879
 20
-88.61164769062501
 11
58.63207692605643
 21
-87.49337474235993
  0
LINE
  5
17D
100
AcDbEntity
  8
0
  6
ByLayer
 62
  256
370
   -1
100
AcDbLine
 10
58.63207692605643
 20
-87.49337474235993
 11
58.26620172959952
 21
-86.38748294243317
  0
LINE
  5
17E
100
AcDbEntity
  8
0
  6
ByLayer
 62
  256
370
   -1
100
AcDbLine
 10
58.26620172959952
 20
-86.38748294243317
 11
57.8920784900823
 21
-85.29815081486207
  0
LINE
  5
17F
100
AcDbEntity
  8
0
  6
ByLayer
 62
  256
370
   -1
100
AcDbLine
 10
57.8920784900823
 20
-85.29815081486207
 11
57.51172834140448
 21
-84.22637757191163
  0
LINE
  5
180
100
AcDbEntity
  8
0
  6
ByLayer
 62
  256
370
   -1
100
AcDbLine
 10
57.51172834140448
 20
-84.22637757191163
 11
57.12725871307043
 21
-83.17735003361207
  0
LINE
  5
181
100
AcDbEntity
  8
0
  6
ByLayer
 62
  256
370
   -1
100
AcDbLine
 10
57.12725871307043
 20
-83.17735003361207
 11
56.74176262122778
 21
-82.15209920534592
  0
LINE
  5
182
100
AcDbEntity
  8
0
  6
ByLayer
 62
  256
370
   -1
100
AcDbLine
 10
56.74176262122778
 20
-82.15209920534592
 11
56.35935500365882
 21
-81.15473548302155
  0
LINE
  5
183
100
AcDbEntity
  8
0
  6
ByLayer
 62
  256
370
   -1
100
AcDbLine
 10
56.35935500365882
 20
-81.15473548302155
 11
55.98108049136786
 21
-80.18633074888689
  0
LINE
  5
184
100
AcDbEntity
  8
0
  6
ByLayer
 62
  256
370
   -1
100
AcDbLine
 10
55.98108049136786
 20
-80.18633074888689
 11
55.61107218963294
 21
-79.249946225972
  0
LINE
  5
185
100
AcDbEntity
  8
0
  6
ByLayer
 62
  256
370
   -1
100
AcDbLine
 10
55.61107218963294
 20
-79.249946225972
 11
55.25037927133231
 21
-78.34457361826401
  0
LINE
  5
186
100
AcDbEntity
  8
0
  6
ByLayer
 62
  256
370
   -1
100
AcDbLine
 10
55.25037927133231
 20
-78.34457361826401
 11
54.90311667424827
 21
-77.47330594191057
  0
LINE
  5
187
100
AcDbEntity
  8
0
  6
ByLayer
 62
  256
370
   -1
100
AcDbLine
 10
54.90311667424827
 20
-77.47330594191057
 11
54.57134186727194
 21
-76.63615228065949
  0
LINE
  5
188
100
AcDbEntity
  8
0
  6
ByLayer
 62
  256
370
   -1
100
AcDbLine
 10
54.57134186727194
 20
-76.63615228065949
 11
54.25714865428596
 21
-75.83620565065844
  0
LINE
  5
189
100
AcDbEntity
  8
0
  6
ByLayer
 62
  256
370
   -1
100
AcDbLine
 10
54.25714865428596
 20
-75.83620565065844
 11
53.96259904605536
 21
-75.07241233715516
  0
LINE
  5
18A
100
AcDbEntity
  8
0
  6
ByLayer
 62
  256
370
   -1
100
AcDbLine
 10
53.96259904605536
 20
-75.07241233715516
 11
53.68974596959738
 21
-74.34379129538041
  0
LINE
  5
18B
100
AcDbEntity
  8
0
  6
ByLayer
 62
  256
370
   -1
100
AcDbLine
 10
53.68974596959738
 20
-74.34379129538041
 11
53.44169606668142
 21
-73.64718592295152
  0
LINE
  5
18C
100
AcDbEntity
  8
0
  6
ByLayer
 62
  256
370
   -1
100
AcDbLine
 10
53.44169606668142
 20
-73.64718592295152
 11
53.21949396831182
 21
-72.9816015494774
  0
LINE
  5
18D
100
AcDbEntity
  8
0
  6
ByLayer
 62
  256
370
   -1
100
AcDbLine
 10
53.21949396831182
 20
-72.9816015494774
 11
53.02415705424934
 21
-72.34287327656251
  0
LINE
  5
18E
100
AcDbEntity
  8
0
  6
ByLayer
 62
  256
370
   -1
100
AcDbLine
 10
53.02415705424934
 20
-72.34287327656251
 11
52.85878288251547
 21
-71.7258642447899
  0
LINE
  5
18F
100
AcDbEntity
  8
0
  6
ByLayer
 62
  256
370
   -1
100
AcDbLine
 10
52.75233044129996
 20
-67.23103504309159
 11
52.85878288251547
 21
-66.74735272058946
  0
LINE
  5
190
100
AcDbEntity
  8
0
  6
ByLayer
 62
  256
370
   -1
100
AcDbLine
 10
52.85878288251547
 20
-66.74735272058946
 11
53.02415705424933
 21
-66.13137469419938
  0
LINE
  5
191
100
AcDbEntity
  8
0
  6
ByLayer
 62
  256
370
   -1
100
AcDbLine
 10
53.02415705424933
 20
-66.13137469419938
 11
53.21949396831182
 21
-65.49161541590196
  0
LINE
  5
192
100
AcDbEntity
  8
0
  6
ByLayer
 62
  256
370
   -1
100
AcDbLine
 10
53.21949396831182
 20
-65.49161541590196
 11
53.44169606668143
 21
-64.82600833305818
  0
LINE
  5
193
100
AcDbEntity
  8
0
  6
ByLayer
 62
  256
370
   -1
100
AcDbLine
 10
53.44169606668143
 20
-64.82600833305818
 11
53.68974596959738
 21
-64.12942566999894
  0
LINE
  5
194
100
AcDbEntity
  8
0
  6
ByLayer
 62
  256
370
   -1
100
AcDbLine
 10
53.68974596959738
 20
-64.12942566999894
 11
53.96259904605536
 21
-63.40078191885453
  0
LINE
  5
195
100
AcDbEntity
  8
0
  6
ByLayer
 62
  256
370
   -1
100
AcDbLine
 10
53.96259904605536
 20
-63.40078191885453
 11
54.25714865428595
 21
-62.63701131472093
  0
LINE
  5
196
100
AcDbEntity
  8
0
  6
ByLayer
 62
  256
370
   -1
100
AcDbLine
 10
54.25714865428595
 20
-62.63701131472093
 11
54.57134186727194
 21
-61.83704651722414
  0
LINE
  5
197
100
AcDbEntity
  8
0
  6
ByLayer
 62
  256
370
   -1
100
AcDbLine
 10
54.57134186727194
 20
-61.83704651722414
 11
54.90311667424827
 21
-60.99989285597307
  0
LINE
  5
198
100
AcDbEntity
  8
0
  6
ByLayer
 62
  256
370
   -1
100
AcDbLine
 10
54.90311667424827
 20
-60.99989285597307
 11
55.25140573484091
 21
-60.12759417423707
  0
LINE
  5
199
100
AcDbEntity
  8
0
  6
ByLayer
 62
  256
370
   -1
100
AcDbLine
 10
55.25140573484091
 20
-60.12759417423707
 11
55.61211682063727
 21
-59.22222156652909
  0
LINE
  5
19A
100
AcDbEntity
  8
0
  6
ByLayer
 62
  256
370
   -1
100
AcDbLine
 10
55.61211682063727
 20
-59.22222156652909
 11
55.98210695487646
 21
-58.2848105801056
  0
LINE
  5
19B
100
AcDbEntity
  8
0
  6
ByLayer
 62
  256
370
   -1
100
AcDbLine
 10
55.98210695487646
 20
-58.2848105801056
 11
56.35935500365882
 21
-57.31743230947953
  0
LINE
  5
19C
100
AcDbEntity
  8
0
  6
ByLayer
 62
  256
370
   -1
100
AcDbLine
 10
56.35935500365882
 20
-57.31743230947953
 11
56.74279362661032
 21
-56.32111776003342
  0
LINE
  5
19D
100
AcDbEntity
  8
0
  6
ByLayer
 62
  256
370
   -1
100
AcDbLine
 10
56.74279362661032
 20
-56.32111776003342
 11
57.12725871307043
 21
-55.29687522778016
  0
LINE
  5
19E
100
AcDbEntity
  8
0
  6
ByLayer
 62
  256
370
   -1
100
AcDbLine
 10
57.12725871307043
 20
-55.29687522778016
 11
57.51172834140448
 21
-54.24784768948061
  0
LINE
  5
19F
100
AcDbEntity
  8
0
  6
ByLayer
 62
  256
370
   -1
100
AcDbLine
 10
57.51172834140448
 20
-54.24784768948061
 11
57.89310949546484
 21
-53.17712816128235
  0
LINE
  5
1A0
100
AcDbEntity
  8
0
  6
ByLayer
 62
  256
370
   -1
100
AcDbLine
 10
57.89310949546484
 20
-53.17712816128235
 11
58.26725090247778
 21
-52.08776878246766
  0
LINE
  5
1A1
100
AcDbEntity
  8
0
  6
ByLayer
 62
  256
370
   -1
100
AcDbLine
 10
58.26725090247778
 20
-52.08776878246766
 11
58.6341525624433
 21
-50.98189515003664
  0
LINE
  5
1A2
100
AcDbEntity
  8
0
  6
ByLayer
 62
  256
370
   -1
100
AcDbLine
 10
58.6341525624433
 20
-50.98189515003664
 11
58.98865490657477
 21
-49.86362220177156
  0
LINE
  5
1A3
100
AcDbEntity
  8
0
  6
ByLayer
 62
  256
370
   -1
100
AcDbLine
 10
58.98865490657477
 20
-49.86362220177156
 11
59.3286777566114
 21
-48.73501194843751
  0
LINE
  5
1A4
100
AcDbEntity
  8
0
  6
ByLayer
 62
  256
370
   -1
100
AcDbLine
 10
59.3286777566114
 20
-48.73501194843751
 11
59.65216818553594
 21
-47.60019749531251
  0
LINE
  5
1A5
100
AcDbEntity
  8
0
  6
ByLayer
 62
  256
370
   -1
100
AcDbLine
 10
59.65216818553594
 20
-47.60019749531251
 11
59.95603317720084
 21
-46.46228548416596
  0
LINE
  5
1A6
100
AcDbEntity
  8
0
  6
ByLayer
 62
  256
370
   -1
100
AcDbLine
 10
59.95603317720084
 20
-46.46228548416596
 11
60.23818346959739
 21
-45.32331975826722
  0
LINE
  5
1A7
100
AcDbEntity
  8
0
  6
ByLayer
 62
  256
370
   -1
100
AcDbLine
 10
60.23818346959739
 20
-45.32331975826722
 11
60.49760622483878
 21
-44.18748792538148
  0
LINE
  5
1A8
100
AcDbEntity
  8
0
  6
ByLayer
 62
  256
370
   -1
100
AcDbLine
 10
60.49760622483878
 20
-44.18748792538148
 11
60.73117663365989
 21
-43.05576194653015
  0
LINE
  5
1A9
100
AcDbEntity
  8
0
  6
ByLayer
 62
  256
370
   -1
100
AcDbLine
 10
60.73117663365989
 20
-43.05576194653015
 11
60.93891740543036
 21
-41.93335589298707
  0
LINE
  5
1AA
100
AcDbEntity
  8
0
  6
ByLayer
 62
  256
370
   -1
100
AcDbLine
 10
60.93891740543036
 20
-41.93335589298707
 11
61.11669089299826
 21
-40.82127806076508
  0
LINE
  5
1AB
100
AcDbEntity
  8
0
  6
ByLayer
 62
  256
370
   -1
100
AcDbLine
 10
61.11669089299826
 20
-40.82127806076508
 11
61.26448347074179
 21
-39.72161771187287
  0
LINE
  5
1AC
100
AcDbEntity
  8
0
  6
ByLayer
 62
  256
370
   -1
100
AcDbLine
 10
61.26448347074179
 20
-39.72161771187287
 11
61.37920212251333
 21
-38.63847161659699
  0
LINE
  5
1AD
100
AcDbEntity
  8
0
  6
ByLayer
 62
  256
370
   -1
100
AcDbLine
 10
61.37920212251333
 20
-38.63847161659699
 11
61.46290885907797
 21
-37.57083147892457
  0
LINE
  5
1AE
100
AcDbEntity
  8
0
  6
ByLayer
 62
  256
370
   -1
100
AcDbLine
 10
61.46290885907797
 20
-37.57083147892457
 11
61.51253337365775
 21
-36.51973284611206
  0
LINE
  5
1AF
100
AcDbEntity
  8
0
  6
ByLayer
 62
  256
370
   -1
100
AcDbLine
 10
61.51253337365775
 20
-36.51973284611206
 11
61.53009680015234
 21
-35.48723772892457
  0
LINE
  5
1B0
100
AcDbEntity
  8
0
  6
ByLayer
 62
  256
370
   -1
100
AcDbLine
 10
9.873296884719405
 20
-16.68528763184052
 11
8.319902762297664
 21
-18.70996419319611
  0
LINE
  5
1B1
100
AcDbEntity
  8
0
  6
ByLayer
 62
  256
370
   -1
100
AcDbLine
 10
3.029272473740131
 20
-35.48723772892457
 11
3.046842455964308
 21
-36.51973284611206
  0
LINE
  5
1B2
100
AcDbEntity
  8
0
  6
ByLayer
 62
  256
370
   -1
100
AcDbLine
 10
3.046842455964308
 20
-36.51973284611206
 11
3.097485338295466
 21
-37.57083147892457
  0
LINE
  5
1B3
100
AcDbEntity
  8
0
  6
ByLayer
 62
  256
370
   -1
100
AcDbLine
 10
3.097485338295466
 20
-37.57083147892457
 11
3.180167664952698
 21
-38.63847161659699
  0
LINE
  5
1B4
100
AcDbEntity
  8
0
  6
ByLayer
 62
  256
370
   -1
100
AcDbLine
 10
3.180167664952698
 20
-38.63847161659699
 11
3.295922520423429
 21
-39.72264417538148
  0
LINE
  5
1B5
100
AcDbEntity
  8
0
  6
ByLayer
 62
  256
370
   -1
100
AcDbLine
 10
3.295922520423429
 20
-39.72264417538148
 11
3.442683720208826
 21
-40.82025159725647
  0
LINE
  5
1B6
100
AcDbEntity
  8
0
  6
ByLayer
 62
  256
370
   -1
100
AcDbLine
 10
3.442683720208826
 20
-40.82025159725647
 11
3.620450714316341
 21
-41.93232942947846
  0
LINE
  5
1B7
100
AcDbEntity
  8
0
  6
ByLayer
 62
  256
370
   -1
100
AcDbLine
 10
3.620450714316341
 20
-41.93232942947846
 11
3.82715650656459
 21
-43.05473548302155
  0
LINE
  5
1B8
100
AcDbEntity
  8
0
  6
ByLayer
 62
  256
370
   -1
100
AcDbLine
 10
3.82715650656459
 20
-43.05473548302155
 11
4.060734295930835
 21
-44.18540774712068
  0
LINE
  5
1B9
100
AcDbEntity
  8
0
  6
ByLayer
 62
  256
370
   -1
100
AcDbLine
 10
4.060734295930835
 20
-44.18540774712068
 11
4.32014959966031
 21
-45.32229329475861
  0
LINE
  5
1BA
100
AcDbEntity
  8
0
  6
ByLayer
 62
  256
370
   -1
100
AcDbLine
 10
4.32014959966031
 20
-45.32229329475861
 11
4.60333742638317
 21
-46.46124085316163
  0
LINE
  5
1BB
100
AcDbEntity
  8
0
  6
ByLayer
 62
  256
370
   -1
100
AcDbLine
 10
4.60333742638317
 20
-46.46124085316163
 11
4.908226894486818
 21
-47.59917103180391
  0
LINE
  5
1BC
100
AcDbEntity
  8
0
  6
ByLayer
 62
  256
370
   -1
100
AcDbLine
 10
4.908226894486818
 20
-47.59917103180391
 11
5.231726407159243
 21
-48.73397640118104
  0
LINE
  5
1BD
100
AcDbEntity
  8
0
  6
ByLayer
 62
  256
370
   -1
100
AcDbLine
 10
5.231726407159243
 20
-48.73397640118104
 11
5.572778417442116
 21
-49.86155110725861
  0
LINE
  5
1BE
100
AcDbEntity
  8
0
  6
ByLayer
 62
  256
370
   -1
100
AcDbLine
 10
5.572778417442116
 20
-49.86155110725861
 11
5.927279909972222
 21
-50.97984222301942
  0
LINE
  5
1BF
100
AcDbEntity
  8
0
  6
ByLayer
 62
  256
370
   -1
100
AcDbLine
 10
5.927279909972222
 20
-50.97984222301942
 11
6.293154254827771
 21
-52.08571585545045
  0
LINE
  5
1C0
100
AcDbEntity
  8
0
  6
ByLayer
 62
  256
370
   -1
100
AcDbLine
 10
6.293154254827771
 20
-52.08571585545045
 11
6.667296229574951
 21
-53.17607444653015
  0
LINE
  5
1C1
100
AcDbEntity
  8
0
  6
ByLayer
 62
  256
370
   -1
100
AcDbLine
 10
6.667296229574951
 20
-53.17607444653015
 11
7.048658080671105
 21
-54.246821225972
  0
LINE
  5
1C2
100
AcDbEntity
  8
0
  6
ByLayer
 62
  256
370
   -1
100
AcDbLine
 10
7.048658080671105
 20
-54.246821225972
 11
7.432096703622612
 21
-55.29687522778016
  0
LINE
  5
1C3
100
AcDbEntity
  8
0
  6
ByLayer
 62
  256
370
   -1
100
AcDbLine
 10
7.432096703622612
 20
-55.29687522778016
 11
7.817611246828112
 21
-56.32111776003343
  0
LINE
  5
1C4
100
AcDbEntity
  8
0
  6
ByLayer
 62
  256
370
   -1
100
AcDbLine
 10
7.817611246828112
 20
-56.32111776003343
 11
8.200021135334048
 21
-57.31948977837067
  0
LINE
  5
1C5
100
AcDbEntity
  8
0
  6
ByLayer
 62
  256
370
   -1
100
AcDbLine
 10
8.200021135334048
 20
-57.31948977837067
 11
8.578296783093485
 21
-58.28688621649248
  0
LINE
  5
1C6
100
AcDbEntity
  8
0
  6
ByLayer
 62
  256
370
   -1
100
AcDbLine
 10
8.578296783093485
 20
-58.28688621649248
 11
8.94828634959844
 21
-59.2243017447899
  0
LINE
  5
1C7
100
AcDbEntity
  8
0
  6
ByLayer
 62
  256
370
   -1
100
AcDbLine
 10
8.94828634959844
 20
-59.2243017447899
 11
9.308998003129039
 21
-60.12966981062394
  0
LINE
  5
1C8
100
AcDbEntity
  8
0
  6
ByLayer
 62
  256
370
   -1
100
AcDbLine
 10
9.308998003129039
 20
-60.12966981062394
 11
9.656260600213084
 21
-61.0009238613556
  0
LINE
  5
1C9
100
AcDbEntity
  8
0
  6
ByLayer
 62
  256
370
   -1
100
AcDbLine
 10
9.656260600213084
 20
-61.0009238613556
 11
9.988016104225192
 21
-61.83704651722414
  0
LINE
  5
1CA
100
AcDbEntity
  8
0
  6
ByLayer
 62
  256
370
   -1
100
AcDbLine
 10
9.988016104225192
 20
-61.83704651722414
 11
10.30325565141824
 21
-62.63701131472093
  0
LINE
  5
1CB
100
AcDbEntity
  8
0
  6
ByLayer
 62
  256
370
   -1
100
AcDbLine
 10
10.30325565141824
 20
-62.63701131472093
 11
10.59677766067174
 21
-63.40078191885453
  0
LINE
  5
1CC
100
AcDbEntity
  8
0
  6
ByLayer
 62
  256
370
   -1
100
AcDbLine
 10
10.59677766067174
 20
-63.40078191885453
 11
10.86961200189975
 21
-64.12942566999894
  0
LINE
  5
1CD
100
AcDbEntity
  8
0
  6
ByLayer
 62
  256
370
   -1
100
AcDbLine
 10
10.86961200189975
 20
-64.12942566999894
 11
11.11766190481571
 21
-64.82600833305818
  0
LINE
  5
1CE
100
AcDbEntity
  8
0
  6
ByLayer
 62
  256
370
   -1
100
AcDbLine
 10
11.11766190481571
 20
-64.82600833305818
 11
11.34090920192388
 21
-65.49161541590196
  0
LINE
  5
1CF
100
AcDbEntity
  8
0
  6
ByLayer
 62
  256
370
   -1
100
AcDbLine
 10
11.34090920192388
 20
-65.49161541590196
 11
11.53521908474353
 21
-66.13032552132111
  0
LINE
  5
1D0
100
AcDbEntity
  8
0
  6
ByLayer
 62
  256
370
   -1
100
AcDbLine
 10
11.53521908474353
 20
-66.13032552132111
 11
11.7005728180447
 21
-66.74735272058946
  0
LINE
  5
1D1
100
AcDbEntity
  8
0
  6
ByLayer
 62
  256
370
   -1
100
AcDbLine
 10
11.7005728180447
 20
-66.74735272058946
 11
11.87937617552665
 21
-67.63618836531145
  0
LINE
  5
1D2
100
AcDbEntity
  8
0
  6
ByLayer
 62
  256
370
   -1
100
AcDbLine
 10
11.97963633937028
 20
-68.53637869486315
 11
12.00133457434562
 21
-69.44279593357545
  0
LINE
  5
1D3
100
AcDbEntity
  8
0
  6
ByLayer
 62
  256
370
   -1
100
AcDbLine
 10
11.80807216120151
 20
-71.24319021830064
 11
11.7005728180447
 21
-71.7258642447899
  0
LINE
  5
1D4
100
AcDbEntity
  8
0
  6
ByLayer
 62
  256
370
   -1
100
AcDbLine
 10
11.7005728180447
 20
-71.7258642447899
 11
11.53521908474353
 21
-72.3428732765625
  0
LINE
  5
1D5
100
AcDbEntity
  8
0
  6
ByLayer
 62
  256
370
   -1
100
AcDbLine
 10
11.53521908474353
 20
-72.3428732765625
 11
11.34090920192388
 21
-72.9816015494774
  0
LINE
  5
1D6
100
AcDbEntity
  8
0
  6
ByLayer
 62
  256
370
   -1
100
AcDbLine
 10
11.34090920192388
 20
-72.9816015494774
 11
11.11766190481571
 21
-73.64821692833405
  0
LINE
  5
1D7
100
AcDbEntity
  8
0
  6
ByLayer
 62
  256
370
   -1
100
AcDbLine
 10
11.11766190481571
 20
-73.64821692833405
 11
10.86961200189975
 21
-74.34379129538041
  0
LINE
  5
1D8
100
AcDbEntity
  8
0
  6
ByLayer
 62
  256
370
   -1
100
AcDbLine
 10
10.86961200189975
 20
-74.34379129538041
 11
10.59677766067175
 21
-75.07241233715517
  0
LINE
  5
1D9
100
AcDbEntity
  8
0
  6
ByLayer
 62
  256
370
   -1
100
AcDbLine
 10
10.59677766067175
 20
-75.07241233715517
 11
10.30325565141824
 21
-75.83620565065844
  0
LINE
  5
1DA
100
AcDbEntity
  8
0
  6
ByLayer
 62
  256
370
   -1
100
AcDbLine
 10
10.30325565141824
 20
-75.83620565065844
 11
9.988016104225192
 21
-76.6371787441681
  0
LINE
  5
1DB
100
AcDbEntity
  8
0
  6
ByLayer
 62
  256
370
   -1
100
AcDbLine
 10
9.988016104225192
 20
-76.6371787441681
 11
9.656260600213084
 21
-77.47433240541918
  0
LINE
  5
1DC
100
AcDbEntity
  8
0
  6
ByLayer
 62
  256
370
   -1
100
AcDbLine
 10
9.656260600213084
 20
-77.47433240541918
 11
9.307949965719256
 21
-78.34663108715516
  0
LINE
  5
1DD
100
AcDbEntity
  8
0
  6
ByLayer
 62
  256
370
   -1
100
AcDbLine
 10
9.307949965719256
 20
-78.34663108715516
 11
8.94828634959844
 21
-79.25200369486315
  0
LINE
  5
1DE
100
AcDbEntity
  8
0
  6
ByLayer
 62
  256
370
   -1
100
AcDbLine
 10
8.94828634959844
 20
-79.25200369486315
 11
8.577249313417944
 21
-80.18941468128662
  0
LINE
  5
1DF
100
AcDbEntity
  8
0
  6
ByLayer
 62
  256
370
   -1
100
AcDbLine
 10
8.577249313417944
 20
-80.18941468128662
 11
8.200021135334048
 21
-81.15681111940843
  0
LINE
  5
1E0
100
AcDbEntity
  8
0
  6
ByLayer
 62
  256
370
   -1
100
AcDbLine
 10
8.200021135334048
 20
-81.15681111940843
 11
7.817611246828112
 21
-82.15312566885453
  0
LINE
  5
1E1
100
AcDbEntity
  8
0
  6
ByLayer
 62
  256
370
   -1
100
AcDbLine
 10
7.817611246828112
 20
-82.15312566885453
 11
7.432096703622612
 21
-83.17632357010346
  0
LINE
  5
1E2
100
AcDbEntity
  8
0
  6
ByLayer
 62
  256
370
   -1
100
AcDbLine
 10
7.432096703622612
 20
-83.17632357010346
 11
7.047629630092653
 21
-84.22534656652908
  0
LINE
  5
1E3
100
AcDbEntity
  8
0
  6
ByLayer
 62
  256
370
   -1
100
AcDbLine
 10
7.047629630092653
 20
-84.22534656652908
 11
6.66626749512938
 21
-85.29609334597095
  0
LINE
  5
1E4
100
AcDbEntity
  8
0
  6
ByLayer
 62
  256
370
   -1
100
AcDbLine
 10
6.66626749512938
 20
-85.29609334597095
 11
6.292125520382199
 21
-86.38543001541598
  0
LINE
  5
1E5
100
AcDbEntity
  8
0
  6
ByLayer
 62
  256
370
   -1
100
AcDbLine
 10
6.292125520382199
 20
-86.38543001541598
 11
5.926251175526652
 21
-87.49129910597307
  0
LINE
  5
1E6
100
AcDbEntity
  8
0
  6
ByLayer
 62
  256
370
   -1
100
AcDbLine
 10
5.926251175526652
 20
-87.49129910597307
 11
5.571749682996545
 21
-88.60957205423814
  0
LINE
  5
1E7
100
AcDbEntity
  8
0
  6
ByLayer
 62
  256
370
   -1
100
AcDbLine
 10
5.571749682996545
 20
-88.60957205423814
 11
5.23069767271367
 21
-89.73819139132004
  0
LINE
  5
1E8
100
AcDbEntity
  8
0
  6
ByLayer
 62
  256
370
   -1
100
AcDbLine
 10
5.23069767271367
 20
-89.73819139132004
 11
4.908226894486817
 21
-90.87299676069719
  0
LINE
  5
1E9
100
AcDbEntity
  8
0
  6
ByLayer
 62
  256
370
   -1
100
AcDbLine
 10
4.908226894486817
 20
-90.87299676069719
 11
4.604369851101312
 21
-92.011957944722
  0
LINE
  5
1EA
100
AcDbEntity
  8
0
  6
ByLayer
 62
  256
370
   -1
100
AcDbLine
 10
4.604369851101312
 20
-92.011957944722
 11
4.321184011448297
 21
-93.14987449774249
  0
LINE
  5
1EB
100
AcDbEntity
  8
0
  6
ByLayer
 62
  256
370
   -1
100
AcDbLine
 10
4.321184011448297
 20
-93.14987449774249
 11
4.061766791615756
 21
-94.28675777444346
  0
LINE
  5
1EC
100
AcDbEntity
  8
0
  6
ByLayer
 62
  256
370
   -1
100
AcDbLine
 10
4.061766791615756
 20
-94.28675777444346
 11
3.828190918352576
 21
-95.41743230947955
  0
LINE
  5
1ED
100
AcDbEntity
  8
0
  6
ByLayer
 62
  256
370
   -1
100
AcDbLine
 10
3.828190918352576
 20
-95.41743230947955
 11
3.621485126104327
 21
-96.54086936840517
  0
LINE
  5
1EE
100
AcDbEntity
  8
0
  6
ByLayer
 62
  256
370
   -1
100
AcDbLine
 10
3.621485126104327
 20
-96.54086936840517
 11
3.442683720208826
 21
-97.65294947156413
  0
LINE
  5
1EF
100
AcDbEntity
  8
0
  6
ByLayer
 62
  256
370
   -1
100
AcDbLine
 10
3.442683720208826
 20
-97.65294947156413
 11
3.29592252042343
 21
-98.75160152444344
  0
LINE
  5
1F0
100
AcDbEntity
  8
0
  6
ByLayer
 62
  256
370
   -1
100
AcDbLine
 10
3.29592252042343
 20
-98.75160152444344
 11
3.180167664952698
 21
-99.83577635416489
  0
LINE
  5
1F1
100
AcDbEntity
  8
0
  6
ByLayer
 62
  256
370
   -1
100
AcDbLine
 10
3.180167664952698
 20
-99.83577635416489
 11
3.097485338295466
 21
-100.9033937824677
  0
LINE
  5
1F2
100
AcDbEntity
  8
0
  6
ByLayer
 62
  256
370
   -1
100
AcDbLine
 10
3.097485338295466
 20
-100.9033937824677
 11
3.046842455964308
 21
-101.9534682227085
  0
LINE
  5
1F3
100
AcDbEntity
  8
0
  6
ByLayer
 62
  256
370
   -1
100
AcDbLine
 10
3.046842455964308
 20
-101.9534682227085
 11
3.029272473740131
 21
-102.9869875324677
  0
LINE
  5
1F4
100
AcDbEntity
  8
0
  6
ByLayer
 62
  256
370
   -1
100
AcDbLine
 10
12.00133457434562
 20
-69.44279593357545
 11
12.00030583990005
 21
-69.48826917538148
  0
LINE
  5
1F5
100
AcDbEntity
  8
0
  6
ByLayer
 62
  256
370
   -1
100
AcDbLine
 10
11.97550266635803
 20
-68.48366570600969
 11
11.97963633937028
 21
-68.53637869486315
  0
LINE
  5
1F6
100
AcDbEntity
  8
0
  6
ByLayer
 62
  256
370
   -1
100
AcDbLine
 10
11.87904994055977
 20
-67.63456664371066
 11
11.89385453415302
 21
-67.73437459597093
  0
ENDSEC
  0
SECTION
  2
OBJECTS
  0
DICTIONARY
  5
C
330
0
100
AcDbDictionary
281
    1
  3
ACAD_GROUP
350
D
  0
DICTIONARY
  5
D
330
C
100
AcDbDictionary
281
    1
  0
ENDSEC
  0
EOF
